<?xml version="1.0" encoding="utf-8"?>
<svg id="master-artboard" viewBox="0 0 1400 980" version="1.1" xmlns="http://www.w3.org/2000/svg" x="0px" y="0px" width="1400px" height="980px" enable-background="new 0 0 1400 980">
<g transform="matrix(1.0448655382629342, 0, 0, 1.0448655382629342, -50.675661164526986, -7.750399939158143)">
		<path d="M 0 0 H 1399.996948 V 980 H 0 V 0 Z" fill="#FFFFFF"/>
	</g><g transform="matrix(1, 0, 0, 1, 0, -7.275957614183426e-12)">
			<g>
				<path fill="#D1D3D4" d="M842.674,682.938c0,20.916-16.959,37.867-37.871,37.867H576.524c-20.919,0-37.875-16.951-37.875-37.867&#10;&#9;&#9;&#9;&#9;&#9;V210.599c0-20.919,16.956-37.875,37.875-37.875h228.279c20.912,0,37.871,16.956,37.871,37.875V682.938z"/>
				<path d="M804.803,722.778H576.524c-21.971,0-39.847-17.873-39.847-39.84V210.599c0-21.971,17.876-39.847,39.847-39.847h228.279&#10;&#9;&#9;&#9;&#9;&#9;c21.971,0,39.844,17.876,39.844,39.847v472.339C844.646,704.905,826.773,722.778,804.803,722.778z M576.524,174.696&#10;&#9;&#9;&#9;&#9;&#9;c-19.794,0-35.903,16.104-35.903,35.903v472.339c0,19.795,16.108,35.896,35.903,35.896h228.279&#10;&#9;&#9;&#9;&#9;&#9;c19.795,0,35.899-16.101,35.899-35.896V210.599c0-19.798-16.104-35.903-35.899-35.903H576.524z"/>
			</g>
			<g>
				<path d="M812.164,635.469H569.155c-1.09,0-1.972-0.883-1.972-1.973V246.364c0-1.09,0.882-1.972,1.972-1.972h243.009&#10;&#9;&#9;&#9;&#9;&#9;c1.09,0,1.972,0.882,1.972,1.972v387.132C814.136,634.586,813.254,635.469,812.164,635.469z M571.127,631.524h239.064V248.336&#10;&#9;&#9;&#9;&#9;&#9;H571.127V631.524z"/>
			</g>
			<g>
				<path d="M740.632,205.203h-99.94c-1.09,0-1.972-0.882-1.972-1.972c0-1.09,0.882-1.972,1.972-1.972h99.94&#10;&#9;&#9;&#9;&#9;&#9;c1.09,0,1.972,0.882,1.972,1.972C742.604,204.321,741.722,205.203,740.632,205.203z"/>
			</g>
			<g>
				<path d="M740.632,223.615h-99.94c-1.09,0-1.972-0.882-1.972-1.972c0-1.09,0.882-1.972,1.972-1.972h99.94&#10;&#9;&#9;&#9;&#9;&#9;c1.09,0,1.972,0.882,1.972,1.972C742.604,222.732,741.722,223.615,740.632,223.615z"/>
			</g>
			<g>
				<path fill="#999B9C" d="M715.91,677.369c0,13.939-11.301,25.244-25.249,25.244c-13.94,0-25.249-11.305-25.249-25.244&#10;&#9;&#9;&#9;&#9;&#9;c0-13.944,11.309-25.249,25.249-25.249C704.609,652.12,715.91,663.425,715.91,677.369z"/>
				<path d="M690.662,704.586c-15.011,0-27.221-12.21-27.221-27.217c0-15.011,12.21-27.222,27.221-27.222&#10;&#9;&#9;&#9;&#9;&#9;c15.01,0,27.221,12.211,27.221,27.222C717.883,692.376,705.672,704.586,690.662,704.586z M690.662,654.092&#10;&#9;&#9;&#9;&#9;&#9;c-12.834,0-23.277,10.442-23.277,23.277c0,12.834,10.442,23.272,23.277,23.272s23.277-10.438,23.277-23.272&#10;&#9;&#9;&#9;&#9;&#9;C713.938,664.534,703.496,654.092,690.662,654.092z"/>
			</g>
			<g>
				<path d="M 569.155029 246.363998 H 812.164032 V 343.144997 H 569.155029 V 246.363998 Z" fill="#46D1FF"/>
				<path d="M812.164,345.117H569.155c-1.09,0-1.972-0.882-1.972-1.972v-96.781c0-1.09,0.882-1.972,1.972-1.972h243.009&#10;&#9;&#9;&#9;&#9;&#9;c1.09,0,1.972,0.882,1.972,1.972v96.781C814.136,344.235,813.254,345.117,812.164,345.117z M571.127,341.173h239.064v-92.837&#10;&#9;&#9;&#9;&#9;&#9;H571.127V341.173z"/>
			</g>
			<g>
				<path d="M 569.155029 343.144989 H 812.164032 V 439.925987 H 569.155029 V 343.144989 Z" fill="#A1E8FF"/>
				<path d="M812.164,441.898H569.155c-1.09,0-1.972-0.882-1.972-1.972v-96.781c0-1.09,0.882-1.972,1.972-1.972h243.009&#10;&#9;&#9;&#9;&#9;&#9;c1.09,0,1.972,0.882,1.972,1.972v96.781C814.136,441.016,813.254,441.898,812.164,441.898z M571.127,437.954h239.064v-92.837&#10;&#9;&#9;&#9;&#9;&#9;H571.127V437.954z"/>
			</g>
			<g>
				<path d="M 569.155029 439.925995 H 812.164032 V 536.710999 H 569.155029 V 439.925995 Z" fill="#46D1FF"/>
				<path d="M812.164,538.684H569.155c-1.09,0-1.972-0.882-1.972-1.973v-96.785c0-1.09,0.882-1.972,1.972-1.972h243.009&#10;&#9;&#9;&#9;&#9;&#9;c1.09,0,1.972,0.882,1.972,1.972v96.785C814.136,537.802,813.254,538.684,812.164,538.684z M571.127,534.739h239.064v-92.841&#10;&#9;&#9;&#9;&#9;&#9;H571.127V534.739z"/>
			</g>
			<g>
				<path d="M 569.155029 536.710999 H 812.164032 V 633.496002 H 569.155029 V 536.710999 Z" fill="#A1E8FF"/>
				<path d="M812.164,635.469H569.155c-1.09,0-1.972-0.883-1.972-1.973v-96.785c0-1.09,0.882-1.972,1.972-1.972h243.009&#10;&#9;&#9;&#9;&#9;&#9;c1.09,0,1.972,0.882,1.972,1.972v96.785C814.136,634.586,813.254,635.469,812.164,635.469z M571.127,631.524h239.064v-92.841&#10;&#9;&#9;&#9;&#9;&#9;H571.127V631.524z"/>
			</g>
			<g>
				<path fill="#FFF78A" d="M644.636,294.75c0,16.852-13.658,30.506-30.506,30.506s-30.506-13.655-30.506-30.506&#10;&#9;&#9;&#9;&#9;&#9;c0-16.844,13.658-30.503,30.506-30.503S644.636,277.906,644.636,294.75z"/>
				<path d="M614.129,327.229c-17.911,0-32.479-14.571-32.479-32.479s14.568-32.475,32.479-32.475s32.479,14.568,32.479,32.475&#10;&#9;&#9;&#9;&#9;&#9;S632.041,327.229,614.129,327.229z M614.129,266.22c-15.735,0-28.535,12.8-28.535,28.531c0,15.735,12.8,28.534,28.535,28.534&#10;&#9;&#9;&#9;&#9;&#9;s28.534-12.799,28.534-28.534C642.664,279.02,629.864,266.22,614.129,266.22z"/>
			</g>
			<g>
				<path fill="#FF8F7C" d="M644.636,391.532c0,16.852-13.658,30.51-30.506,30.51s-30.506-13.659-30.506-30.51&#10;&#9;&#9;&#9;&#9;&#9;c0-16.844,13.658-30.503,30.506-30.503S644.636,374.688,644.636,391.532z"/>
				<path d="M614.129,424.014c-17.911,0-32.479-14.571-32.479-32.482c0-17.907,14.568-32.475,32.479-32.475&#10;&#9;&#9;&#9;&#9;&#9;s32.479,14.568,32.479,32.475C646.608,409.443,632.041,424.014,614.129,424.014z M614.129,363.001&#10;&#9;&#9;&#9;&#9;&#9;c-15.735,0-28.535,12.8-28.535,28.531c0,15.735,12.8,28.538,28.535,28.538s28.534-12.803,28.534-28.538&#10;&#9;&#9;&#9;&#9;&#9;C642.664,375.801,629.864,363.001,614.129,363.001z"/>
			</g>
			<g>
				<path d="M 644.635029 488.312988 A 30.506001 30.506001 0 0 1 614.129028 518.818989 A 30.506001 30.506001 0 0 1 583.623028 488.312988 A 30.506001 30.506001 0 0 1 614.129028 457.806988 A 30.506001 30.506001 0 0 1 644.635029 488.312988 Z" fill="#FFF78A"/>
				<path d="M614.129,520.792c-17.911,0-32.479-14.572-32.479-32.479c0-17.907,14.568-32.479,32.479-32.479&#10;&#9;&#9;&#9;&#9;&#9;s32.479,14.572,32.479,32.479C646.608,506.22,632.041,520.792,614.129,520.792z M614.129,459.778&#10;&#9;&#9;&#9;&#9;&#9;c-15.735,0-28.535,12.8-28.535,28.535s12.8,28.535,28.535,28.535s28.534-12.8,28.534-28.535S629.864,459.778,614.129,459.778z"/>
			</g>
			<g>
				<path d="M 644.635029 585.093994 A 30.506001 30.506001 0 0 1 614.129028 615.599995 A 30.506001 30.506001 0 0 1 583.623028 585.093994 A 30.506001 30.506001 0 0 1 614.129028 554.587994 A 30.506001 30.506001 0 0 1 644.635029 585.093994 Z" fill="#FF8F7C"/>
				<path d="M614.129,617.573c-17.911,0-32.479-14.572-32.479-32.479c0-17.906,14.568-32.479,32.479-32.479&#10;&#9;&#9;&#9;&#9;&#9;s32.479,14.572,32.479,32.479C646.608,603.001,632.041,617.573,614.129,617.573z M614.129,556.56&#10;&#9;&#9;&#9;&#9;&#9;c-15.735,0-28.535,12.8-28.535,28.534c0,15.735,12.8,28.535,28.535,28.535s28.534-12.8,28.534-28.535&#10;&#9;&#9;&#9;&#9;&#9;C642.664,569.359,629.864,556.56,614.129,556.56z"/>
			</g>
			<g>
				<path d="M781.13,278.842H665.413c-1.09,0-1.972-0.882-1.972-1.972s0.882-1.972,1.972-1.972H781.13&#10;&#9;&#9;&#9;&#9;&#9;c1.094,0,1.972,0.882,1.972,1.972S782.224,278.842,781.13,278.842z"/>
			</g>
			<g>
				<path d="M781.13,296.723H665.413c-1.09,0-1.972-0.882-1.972-1.972c0-1.09,0.882-1.972,1.972-1.972H781.13&#10;&#9;&#9;&#9;&#9;&#9;c1.094,0,1.972,0.882,1.972,1.972C783.102,295.84,782.224,296.723,781.13,296.723z"/>
			</g>
			<g>
				<path d="M729.85,314.606h-64.437c-1.09,0-1.972-0.882-1.972-1.972c0-1.09,0.882-1.972,1.972-1.972h64.437&#10;&#9;&#9;&#9;&#9;&#9;c1.091,0,1.973,0.882,1.973,1.972C731.822,313.725,730.94,314.606,729.85,314.606z"/>
			</g>
			<g>
				<path d="M781.13,375.627H665.413c-1.09,0-1.972-0.882-1.972-1.972s0.882-1.972,1.972-1.972H781.13&#10;&#9;&#9;&#9;&#9;&#9;c1.094,0,1.972,0.882,1.972,1.972S782.224,375.627,781.13,375.627z"/>
			</g>
			<g>
				<path d="M781.13,393.504H665.413c-1.09,0-1.972-0.882-1.972-1.972c0-1.09,0.882-1.972,1.972-1.972H781.13&#10;&#9;&#9;&#9;&#9;&#9;c1.094,0,1.972,0.882,1.972,1.972C783.102,392.622,782.224,393.504,781.13,393.504z"/>
			</g>
			<g>
				<path d="M694.34,411.388h-28.927c-1.09,0-1.972-0.882-1.972-1.972c0-1.09,0.882-1.972,1.972-1.972h28.927&#10;&#9;&#9;&#9;&#9;&#9;c1.094,0,1.972,0.882,1.972,1.972C696.312,410.506,695.434,411.388,694.34,411.388z"/>
			</g>
			<g>
				<path d="M744.31,411.388h-28.927c-1.09,0-1.973-0.882-1.973-1.972c0-1.09,0.883-1.972,1.973-1.972h28.927&#10;&#9;&#9;&#9;&#9;&#9;c1.091,0,1.973,0.882,1.973,1.972C746.282,410.506,745.4,411.388,744.31,411.388z"/>
			</g>
			<g>
				<path d="M781.13,472.401H665.413c-1.09,0-1.972-0.882-1.972-1.972c0-1.09,0.882-1.972,1.972-1.972H781.13&#10;&#9;&#9;&#9;&#9;&#9;c1.094,0,1.972,0.882,1.972,1.972C783.102,471.519,782.224,472.401,781.13,472.401z"/>
			</g>
			<g>
				<path d="M781.13,490.285H665.413c-1.09,0-1.972-0.882-1.972-1.972c0-1.09,0.882-1.972,1.972-1.972H781.13&#10;&#9;&#9;&#9;&#9;&#9;c1.094,0,1.972,0.882,1.972,1.972C783.102,489.403,782.224,490.285,781.13,490.285z"/>
			</g>
			<g>
				<path d="M690.662,508.165h-25.249c-1.09,0-1.972-0.882-1.972-1.972s0.882-1.973,1.972-1.973h25.249&#10;&#9;&#9;&#9;&#9;&#9;c1.09,0,1.972,0.883,1.972,1.973S691.751,508.165,690.662,508.165z"/>
			</g>
			<g>
				<path d="M781.13,569.183H665.413c-1.09,0-1.972-0.883-1.972-1.973s0.882-1.972,1.972-1.972H781.13&#10;&#9;&#9;&#9;&#9;&#9;c1.094,0,1.972,0.882,1.972,1.972S782.224,569.183,781.13,569.183z"/>
			</g>
			<g>
				<path d="M781.13,587.066H665.413c-1.09,0-1.972-0.882-1.972-1.973c0-1.09,0.882-1.972,1.972-1.972H781.13&#10;&#9;&#9;&#9;&#9;&#9;c1.094,0,1.972,0.882,1.972,1.972C783.102,586.185,782.224,587.066,781.13,587.066z"/>
			</g>
			<g>
				<path d="M768.507,604.946H665.413c-1.09,0-1.972-0.882-1.972-1.972s0.882-1.973,1.972-1.973h103.094&#10;&#9;&#9;&#9;&#9;&#9;c1.091,0,1.973,0.883,1.973,1.973S769.598,604.946,768.507,604.946z"/>
			</g>
			<g>
				<g>
					<path fill="#FFEFB3" d="M891.52,590.706c-10.488,0-19.791,5.196-25.461,13.15c-3.251-13.793-15.661-24.089-30.434-24.089&#10;&#9;&#9;&#9;&#9;&#9;&#9;c-10.904,0-20.526,5.619-26.123,14.124c-4.063-12.572-15.869-21.693-29.774-21.693c-9.991,0-18.897,4.711-24.629,12.041&#10;&#9;&#9;&#9;&#9;&#9;&#9;V478.028c0-17.229-14.013-31.261-31.254-31.261c-17.248,0-31.276,14.032-31.276,31.261v195.516L665.59,706.28l-0.096,1.044&#10;&#9;&#9;&#9;&#9;&#9;&#9;c0,0-0.081,1.222-0.081,3.348c0,10.893,2.269,38.106,23.053,55.32l35.818,36.908c0.551,1.448,2.026,5.604,3.524,11.602&#10;&#9;&#9;&#9;&#9;&#9;&#9;c0.971,3.875,1.991,14.807,2.7,22.652v4.307c0,19.032,15.415,34.459,34.432,34.459h96.111&#10;&#9;&#9;&#9;&#9;&#9;&#9;c19.017,0,34.432-15.427,34.432-34.459v-1.121l0,0v-33.01c5.823-4.545,27.313-23.181,27.313-50.332V621.972&#10;&#9;&#9;&#9;&#9;&#9;&#9;C922.797,604.734,908.76,590.706,891.52,590.706z"/>
					<path d="M861.052,877.892H764.94c-20.072,0-36.403-16.344-36.403-36.431v-4.307c-0.532-5.797-1.653-18.227-2.643-22.175&#10;&#9;&#9;&#9;&#9;&#9;&#9;c-1.395-5.601-2.758-9.502-3.313-11.001l-35.53-36.611c-21.297-17.622-23.612-45.525-23.612-56.695&#10;&#9;&#9;&#9;&#9;&#9;&#9;c0-2.211,0.085-3.479,0.085-3.479l0.1-1.094c0.039-0.393,0.192-0.767,0.443-1.074l26.528-32.19V478.028&#10;&#9;&#9;&#9;&#9;&#9;&#9;c0-18.323,14.915-33.233,33.249-33.233c18.319,0,33.227,14.91,33.227,33.233v101.138c6.116-5.731,14.132-8.939,22.656-8.939&#10;&#9;&#9;&#9;&#9;&#9;&#9;c13.231,0,24.998,7.745,30.321,19.609c6.294-7.6,15.608-12.041,25.576-12.041c14.19,0,26.547,8.832,31.254,21.901&#10;&#9;&#9;&#9;&#9;&#9;&#9;c6.268-6.926,15.223-10.962,24.641-10.962c18.331,0,33.249,14.91,33.249,33.237v135.026c0,26.832-19.983,45.39-27.313,51.287&#10;&#9;&#9;&#9;&#9;&#9;&#9;v33.176C897.455,861.548,881.123,877.892,861.052,877.892z M667.458,707.506c0,0-0.073,1.167-0.073,3.166&#10;&#9;&#9;&#9;&#9;&#9;&#9;c0,10.611,2.176,37.101,22.341,53.803l35.976,37.051c0.186,0.196,0.332,0.424,0.432,0.678c0.439,1.159,1.999,5.45,3.59,11.821&#10;&#9;&#9;&#9;&#9;&#9;&#9;c0.933,3.729,1.872,13.234,2.751,22.953l0.007,4.483c0,17.915,14.561,32.486,32.46,32.486h96.111&#10;&#9;&#9;&#9;&#9;&#9;&#9;c17.899,0,32.459-14.571,32.459-32.486V807.33c0-0.608,0.277-1.183,0.759-1.557c6.229-4.857,26.555-22.737,26.555-48.775&#10;&#9;&#9;&#9;&#9;&#9;&#9;V621.972c0-16.15-13.146-29.293-29.305-29.293c-9.438,0-18.354,4.606-23.854,12.321c-0.45,0.632-1.221,0.952-1.987,0.79&#10;&#9;&#9;&#9;&#9;&#9;&#9;c-0.759-0.146-1.36-0.728-1.541-1.483c-3.128-13.288-14.853-22.567-28.512-22.567c-9.868,0-19.02,4.949-24.479,13.239&#10;&#9;&#9;&#9;&#9;&#9;&#9;c-0.415,0.631-1.151,0.974-1.914,0.866c-0.747-0.101-1.375-0.624-1.609-1.349c-3.93-12.156-15.139-20.326-27.896-20.326&#10;&#9;&#9;&#9;&#9;&#9;&#9;c-9.06,0-17.468,4.114-23.076,11.282c-0.521,0.667-1.402,0.929-2.199,0.651c-0.794-0.273-1.325-1.024-1.325-1.864V478.028&#10;&#9;&#9;&#9;&#9;&#9;&#9;c0-16.15-13.135-29.289-29.282-29.289c-16.158,0-29.305,13.139-29.305,29.289v195.516c0,0.458-0.158,0.901-0.446,1.256&#10;&#9;&#9;&#9;&#9;&#9;&#9;L667.5,707.066L667.458,707.506L667.458,707.506z"/>
				</g>
				<g>
					<path fill="#DBCD99" d="M745.342,507.927v-25.916c0-12.118-9.818-21.94-21.932-21.94c-12.118,0-21.94,9.822-21.94,21.94v25.916&#10;&#9;&#9;&#9;&#9;&#9;&#9;H745.342z"/>
					<path d="M745.342,509.898H701.47c-1.09,0-1.972-0.882-1.972-1.972v-25.916c0-13.185,10.727-23.912,23.913-23.912&#10;&#9;&#9;&#9;&#9;&#9;&#9;c13.181,0,23.904,10.728,23.904,23.912v25.916C747.314,509.017,746.433,509.898,745.342,509.898z M703.441,505.954h39.929&#10;&#9;&#9;&#9;&#9;&#9;&#9;v-23.943c0-11.008-8.956-19.968-19.96-19.968c-11.013,0-19.969,8.959-19.969,19.968V505.954z"/>
				</g>
			</g>
		</g><path d="M 1232.249023 242.033997 L 1210.323975 242.033997" fill="#FFFFFF" transform="matrix(1, 0, 0, 1, 0, -1.4551915228366852e-11)"/><path d="M 1196.156982 278.122009 L 1174.235962 278.122009" fill="#FFFFFF" transform="matrix(1, 0, 0, 1, 0, -1.4551915228366852e-11)"/>
<path d="M 217.74041748046875 432.34295654296875" style="fill: rgb(255, 255, 255); fill-opacity: 1; stroke: rgb(0, 0, 0); stroke-opacity: 1; stroke-width: 0; paint-order: fill;" transform="matrix(1.4490481829102722, 0, 0, 1.4490481829102722, -273.12988447082677, -203.64012327240576)"/><path d="M 351.88189697265625 651.440673828125" style="fill: rgb(255, 255, 255); fill-opacity: 1; stroke: rgb(0, 0, 0); stroke-opacity: 1; stroke-width: 0; paint-order: fill;" transform="matrix(1.4490481829102722, 0, 0, 1.4490481829102722, -273.12988447082677, -203.64012327240576)"/></svg>