<?xml version="1.0" encoding="utf-8"?>
<svg id="master-artboard" viewBox="0 0 700 490" version="1.1" xmlns="http://www.w3.org/2000/svg" x="0px" y="0px" style="enable-background:new 0 0 700 490;" width="700px" height="490px">

<g transform="matrix(1, 0, 0, 1, 0, -3.637978807091713e-12)">
		<g>
			<path class="st0" d="M362.4,454.9c0.3,0,0.7,0.3,0.7,0.3l-5.7,11.8c-0.6,0-2.1,0.1-2.5,0.1c-0.3,0-0.7-0.3-0.7-0.3l-1.9-11.8&#10;&#9;&#9;&#9;&#9;c1.2,0,2.7-0.1,3.1-0.1c0.3,0,0.7,0.3,0.7,0.3l0.6,5.8c0.1,0.5,0.1,1.2,0,1.9c0.2-0.8,0.4-1.5,0.6-2.1l2.4-5.8&#10;&#9;&#9;&#9;&#9;C360.7,455,362,454.9,362.4,454.9L362.4,454.9z" style="fill: rgb(49, 63, 91);"/>
		</g>
		<g>
			<path class="st0" d="M368.3,460.7c0,1.3-0.7,2.1-2.6,2.5l-1.9,0.4c0.2,0.8,0.7,1.2,1.5,1.2c1.1,0,1.8-0.8,1.8-0.8&#10;&#9;&#9;&#9;&#9;s0.5,0.3,0.5,0.9c0,1.1-1.7,2.2-3.7,2.2c-2,0-3.3-1.2-3.3-3.3c0-2.4,1.7-5.6,4.8-5.6C367.2,458.2,368.3,459.2,368.3,460.7&#10;&#9;&#9;&#9;&#9;L368.3,460.7z M365,461.9c0.4-0.1,0.5-0.5,0.5-0.8c0-0.4-0.1-0.9-0.5-0.9c-0.8,0-1.1,1.2-1.2,2.1L365,461.9z" style="fill: rgb(49, 63, 91);"/>
		</g>
		<g>
			<path class="st0" d="M373.5,458.2c1.6,0,2.7,0.8,2.7,1.9c0,1.3-1.6,1.8-1.6,1.8s-0.5-1.4-1.6-1.4c-0.7,0-1.2,0.7-1.2,2.3&#10;&#9;&#9;&#9;&#9;c0,1.4,0.4,2.1,1.3,2.1c1,0,1.6-0.6,1.6-0.6s0.5,0.3,0.5,0.9c0,1-1.6,2.1-3.5,2.1c-2,0-3.3-1.2-3.3-3.3&#10;&#9;&#9;&#9;&#9;C368.5,461.5,370.3,458.2,373.5,458.2L373.5,458.2z" style="fill: rgb(49, 63, 91);"/>
		</g>
		<g>
			<path class="st0" d="M381,456.3c0.4,0,0.6,0.3,0.6,0.3l-0.3,1.8h2l-0.4,1.4c-0.1,0.4-0.4,0.7-0.8,0.7h-1l-0.6,3.5&#10;&#9;&#9;&#9;&#9;c-0.1,0.6,0,0.8,0.4,0.8c0.4,0,0.7-0.2,0.7-0.2s0.5,0.3,0.5,0.9c0,0.9-1.3,1.7-2.9,1.7c-1.7,0-2.4-1-2.1-2.8l0.6-3.9h-1.1&#10;&#9;&#9;&#9;&#9;l0.5-1.4c0.1-0.4,0.4-0.6,0.8-0.6h0.5l0.6-1.7C379.9,456.6,380.6,456.3,381,456.3L381,456.3z" style="fill: rgb(49, 63, 91);"/>
		</g>
		<g>
			<path class="st0" d="M390.5,460.7c0,1.3-0.7,2.1-2.6,2.5l-1.9,0.4c0.2,0.8,0.7,1.2,1.5,1.2c1.1,0,1.8-0.8,1.8-0.8&#10;&#9;&#9;&#9;&#9;s0.5,0.3,0.5,0.9c0,1.1-1.7,2.2-3.7,2.2c-2,0-3.3-1.2-3.3-3.3c0-2.4,1.7-5.6,4.8-5.6C389.5,458.2,390.5,459.2,390.5,460.7&#10;&#9;&#9;&#9;&#9;L390.5,460.7z M387.3,461.9c0.4-0.1,0.5-0.5,0.5-0.8c0-0.4-0.1-0.9-0.5-0.9c-0.8,0-1.1,1.2-1.2,2.1L387.3,461.9z" style="fill: rgb(49, 63, 91);"/>
		</g>
		<g>
			<path class="st0" d="M398.4,460.7c0,1.3-0.7,2.1-2.6,2.5l-1.9,0.4c0.1,0.8,0.7,1.2,1.5,1.2c1.1,0,1.8-0.8,1.8-0.8&#10;&#9;&#9;&#9;&#9;s0.5,0.3,0.5,0.9c0,1.1-1.7,2.2-3.7,2.2c-2,0-3.3-1.2-3.3-3.3c0-2.4,1.7-5.6,4.8-5.6C397.3,458.2,398.4,459.2,398.4,460.7&#10;&#9;&#9;&#9;&#9;L398.4,460.7z M395.1,461.9c0.4-0.1,0.5-0.5,0.5-0.8c0-0.4-0.1-0.9-0.5-0.9c-0.8,0-1.1,1.2-1.2,2.1L395.1,461.9z" style="fill: rgb(49, 63, 91);"/>
		</g>
		<g>
			<path class="st0" d="M404.8,463.9c0,0,0.7,0.6,0.7,1.6c0,1.3-1.1,1.7-2.1,1.7c-1.3,0-2.2-0.6-3.1-0.9c-0.3,0.3-0.5,0.6-0.8,0.9&#10;&#9;&#9;&#9;&#9;c0,0-1.4,0-1.4-1c0-1.1,2-3.1,4.1-5.3c-0.2,0-0.5-0.1-0.7-0.1c-1.2,0-1.7,0.6-1.7,0.6s-0.6-0.7-0.6-1.6c0.1-1.2,1.3-1.6,2.2-1.6&#10;&#9;&#9;&#9;&#9;c1,0,1.8,0.4,2.5,0.7l0.6-0.7c0,0,1.4,0,1.4,1c0,1.1-1.9,3-3.9,5.2c0.4,0.1,0.8,0.2,1.2,0.2C404.3,464.6,404.8,463.9,404.8,463.9&#10;&#9;&#9;&#9;&#9;L404.8,463.9z" style="fill: rgb(49, 63, 91);"/>
		</g>
		<g>
			<path class="st0" d="M414,466.4c-0.5,3-2.6,4.5-5.3,4.5c-1.7,0-3-0.9-3-1.9c0-0.7,0.6-1,0.6-1s0.6,0.5,1.7,0.5&#10;&#9;&#9;&#9;&#9;c1.1,0,2.5-0.4,2.8-2l0.2-1.2c-0.7,1-1.7,1.8-2.9,1.8c-1.4,0-2-1.1-1.6-3.3l0.4-2.4c0.2-1.5,0.3-2.6,0.3-2.6&#10;&#9;&#9;&#9;&#9;c1-0.2,2.2-0.6,2.7-0.6c0.3,0,0.7,0.3,0.7,0.3l-0.5,3l-0.4,2.8c0,0.3,0,0.4,0.2,0.4c1.1,0,1.8-3.1,1.8-3.1&#10;&#9;&#9;&#9;&#9;c0.2-1.5,0.3-2.6,0.3-2.6c1-0.2,2.2-0.6,2.7-0.6c0.3,0,0.7,0.3,0.7,0.3l-0.5,3L414,466.4z" style="fill: rgb(49, 63, 91);"/>
		</g>
	</g><path class="st0" d="M283.2,458.7h3c0.7,0,1.2,0.1,1.6,0.2c0.5,0.1,0.9,0.4,1.2,0.7c0.3,0.4,0.6,0.8,0.8,1.3&#10;&#9;&#9;&#9;c0.2,0.5,0.3,1.1,0.3,1.9c0,0.7-0.1,1.2-0.3,1.7c-0.2,0.6-0.5,1.1-0.9,1.4c-0.3,0.3-0.7,0.5-1.2,0.6c-0.4,0.1-0.9,0.2-1.5,0.2&#10;&#9;&#9;&#9;h-3.1V458.7z M284.9,460.1v5.3h1.2c0.5,0,0.8,0,1-0.1c0.3-0.1,0.5-0.2,0.7-0.3c0.2-0.2,0.3-0.4,0.4-0.8c0.1-0.4,0.2-0.8,0.2-1.5&#10;&#9;&#9;&#9;c0-0.6-0.1-1.1-0.2-1.4c-0.1-0.3-0.3-0.6-0.5-0.8c-0.2-0.2-0.5-0.3-0.8-0.4c-0.2-0.1-0.7-0.1-1.4-0.1H284.9z" style="fill: rgb(49, 63, 91);" transform="matrix(1, 0, 0, 1, 0, -7.275957614183426e-12)"/><path class="st0" d="M294.7,464.9l1.6,0.3c-0.2,0.6-0.5,1-1,1.3c-0.4,0.3-1,0.4-1.6,0.4c-1,0-1.8-0.3-2.3-1&#10;&#9;&#9;&#9;c-0.4-0.5-0.6-1.2-0.6-2c0-1,0.3-1.7,0.8-2.3c0.5-0.5,1.2-0.8,2-0.8c0.9,0,1.6,0.3,2.1,0.9c0.5,0.6,0.8,1.4,0.7,2.6h-4&#10;&#9;&#9;&#9;c0,0.5,0.1,0.8,0.4,1.1c0.2,0.3,0.5,0.4,0.9,0.4c0.2,0,0.5-0.1,0.6-0.2C294.5,465.4,294.7,465.2,294.7,464.9z M294.8,463.3&#10;&#9;&#9;&#9;c0-0.4-0.1-0.8-0.4-1c-0.2-0.2-0.5-0.3-0.8-0.3c-0.3,0-0.6,0.1-0.9,0.4c-0.2,0.2-0.3,0.6-0.3,1H294.8z" style="fill: rgb(49, 63, 91);" transform="matrix(1, 0, 0, 1, 0, -7.275957614183426e-12)"/><path class="st0" d="M296.9,465.1l1.6-0.2c0.1,0.3,0.2,0.5,0.4,0.7c0.2,0.2,0.5,0.2,0.9,0.2c0.4,0,0.7-0.1,0.9-0.2&#10;&#9;&#9;&#9;c0.1-0.1,0.2-0.2,0.2-0.4c0-0.1,0-0.2-0.1-0.3c-0.1-0.1-0.3-0.1-0.5-0.2c-1.3-0.3-2.1-0.5-2.4-0.7c-0.5-0.3-0.7-0.7-0.7-1.3&#10;&#9;&#9;&#9;c0-0.5,0.2-0.9,0.6-1.3c0.4-0.3,1-0.5,1.9-0.5c0.8,0,1.4,0.1,1.8,0.4c0.4,0.3,0.7,0.6,0.8,1.1l-1.5,0.3c-0.1-0.2-0.2-0.4-0.4-0.5&#10;&#9;&#9;&#9;c-0.2-0.1-0.4-0.2-0.8-0.2c-0.4,0-0.7,0.1-0.9,0.2c-0.1,0.1-0.2,0.2-0.2,0.3c0,0.1,0.1,0.2,0.2,0.3c0.1,0.1,0.6,0.2,1.5,0.4&#10;&#9;&#9;&#9;c0.8,0.2,1.4,0.4,1.8,0.7c0.3,0.3,0.5,0.7,0.5,1.1c0,0.5-0.2,1-0.7,1.4c-0.5,0.4-1.1,0.6-2,0.6c-0.8,0-1.5-0.2-1.9-0.5&#10;&#9;&#9;&#9;C297.4,466,297.1,465.6,296.9,465.1z" style="fill: rgb(49, 63, 91);" transform="matrix(1, 0, 0, 1, 0, -7.275957614183426e-12)"/><path class="st0" d="M303.6,460.1v-1.4h1.6v1.4H303.6z M303.6,466.7v-5.8h1.6v5.8H303.6z" style="fill: rgb(49, 63, 91);" transform="matrix(1, 0, 0, 1, 0, -7.275957614183426e-12)"/><path class="st0" d="M306.4,467.1l1.8,0.2c0,0.2,0.1,0.3,0.2,0.4c0.2,0.1,0.4,0.2,0.7,0.2c0.4,0,0.7-0.1,0.9-0.2&#10;&#9;&#9;&#9;c0.1-0.1,0.2-0.2,0.3-0.4c0-0.1,0.1-0.4,0.1-0.7v-0.8c-0.5,0.6-1.1,0.9-1.8,0.9c-0.8,0-1.4-0.3-1.9-1c-0.4-0.5-0.5-1.2-0.5-1.9&#10;&#9;&#9;&#9;c0-1,0.2-1.7,0.7-2.2c0.5-0.5,1.1-0.8,1.8-0.8c0.7,0,1.3,0.3,1.8,0.9v-0.8h1.5v5.2c0,0.7-0.1,1.2-0.2,1.5&#10;&#9;&#9;&#9;c-0.1,0.3-0.3,0.6-0.5,0.8c-0.2,0.2-0.5,0.3-0.8,0.5c-0.3,0.1-0.8,0.2-1.3,0.2c-1,0-1.7-0.2-2.2-0.5c-0.4-0.3-0.6-0.8-0.6-1.3&#10;&#9;&#9;&#9;C306.4,467.2,306.4,467.2,306.4,467.1z M307.9,463.7c0,0.6,0.1,1.1,0.4,1.4c0.2,0.3,0.5,0.4,0.9,0.4c0.4,0,0.7-0.1,1-0.4&#10;&#9;&#9;&#9;c0.3-0.3,0.4-0.7,0.4-1.3c0-0.6-0.1-1-0.4-1.3c-0.3-0.3-0.6-0.4-1-0.4c-0.4,0-0.7,0.1-0.9,0.4C308,462.7,307.9,463.1,307.9,463.7z&#10;&#9;&#9;&#9;" style="fill: rgb(49, 63, 91);" transform="matrix(1, 0, 0, 1, 0, -7.275957614183426e-12)"/><path class="st0" d="M318.8,466.7h-1.6v-3c0-0.6,0-1-0.1-1.2c-0.1-0.2-0.2-0.3-0.3-0.4c-0.1-0.1-0.3-0.2-0.5-0.2&#10;&#9;&#9;&#9;c-0.3,0-0.5,0.1-0.7,0.2c-0.2,0.1-0.4,0.3-0.4,0.6c-0.1,0.2-0.1,0.7-0.1,1.3v2.6h-1.6v-5.8h1.5v0.9c0.5-0.7,1.2-1,2-1&#10;&#9;&#9;&#9;c0.3,0,0.7,0.1,1,0.2c0.3,0.1,0.5,0.3,0.7,0.5c0.1,0.2,0.3,0.4,0.3,0.6c0.1,0.2,0.1,0.6,0.1,1V466.7z" style="fill: rgb(49, 63, 91);" transform="matrix(1, 0, 0, 1, 0, -7.275957614183426e-12)"/><path class="st0" d="M323.6,464.9l1.6,0.3c-0.2,0.6-0.5,1-1,1.3c-0.4,0.3-1,0.4-1.6,0.4c-1,0-1.8-0.3-2.3-1&#10;&#9;&#9;&#9;c-0.4-0.5-0.6-1.2-0.6-2c0-1,0.3-1.7,0.8-2.3c0.5-0.5,1.2-0.8,2-0.8c0.9,0,1.6,0.3,2.1,0.9c0.5,0.6,0.8,1.4,0.7,2.6h-4&#10;&#9;&#9;&#9;c0,0.5,0.1,0.8,0.4,1.1c0.2,0.3,0.5,0.4,0.9,0.4c0.2,0,0.5-0.1,0.6-0.2C323.4,465.4,323.5,465.2,323.6,464.9z M323.7,463.3&#10;&#9;&#9;&#9;c0-0.4-0.1-0.8-0.4-1c-0.2-0.2-0.5-0.3-0.8-0.3c-0.3,0-0.6,0.1-0.9,0.4c-0.2,0.2-0.3,0.6-0.3,1H323.7z" style="fill: rgb(49, 63, 91);" transform="matrix(1, 0, 0, 1, 0, -7.275957614183426e-12)"/><path class="st0" d="M331.8,466.7h-1.5v-0.9c-0.2,0.3-0.5,0.6-0.9,0.7c-0.3,0.2-0.7,0.2-1,0.2c-0.7,0-1.3-0.3-1.8-0.8&#10;&#9;&#9;&#9;c-0.5-0.5-0.7-1.3-0.7-2.2c0-1,0.2-1.7,0.7-2.2c0.5-0.5,1.1-0.8,1.8-0.8c0.7,0,1.2,0.3,1.7,0.8v-2.9h1.6V466.7z M327.6,463.7&#10;&#9;&#9;&#9;c0,0.6,0.1,1.1,0.3,1.3c0.3,0.4,0.6,0.6,1.1,0.6c0.4,0,0.7-0.2,0.9-0.4c0.3-0.3,0.4-0.7,0.4-1.3c0-0.7-0.1-1.1-0.4-1.4&#10;&#9;&#9;&#9;c-0.2-0.3-0.6-0.4-0.9-0.4c-0.4,0-0.7,0.1-0.9,0.4C327.7,462.7,327.6,463.1,327.6,463.7z" style="fill: rgb(49, 63, 91);" transform="matrix(1, 0, 0, 1, 0, -7.275957614183426e-12)"/><path class="st0" d="M336,466.7v-8h1.6v2.9c0.5-0.5,1.1-0.8,1.7-0.8c0.7,0,1.3,0.3,1.8,0.8c0.5,0.5,0.7,1.2,0.7,2.2&#10;&#9;&#9;&#9;c0,1-0.2,1.8-0.7,2.3c-0.5,0.5-1.1,0.8-1.8,0.8c-0.3,0-0.7-0.1-1-0.2c-0.3-0.2-0.6-0.4-0.9-0.7v0.9H336z M337.6,463.7&#10;&#9;&#9;&#9;c0,0.6,0.1,1,0.3,1.3c0.3,0.4,0.6,0.6,1.1,0.6c0.3,0,0.6-0.1,0.9-0.4c0.2-0.3,0.4-0.7,0.4-1.4c0-0.7-0.1-1.1-0.4-1.4&#10;&#9;&#9;&#9;c-0.2-0.3-0.6-0.4-0.9-0.4c-0.4,0-0.7,0.1-0.9,0.4C337.7,462.7,337.6,463.1,337.6,463.7z" style="fill: rgb(49, 63, 91);" transform="matrix(1, 0, 0, 1, 0, -7.275957614183426e-12)"/><path class="st0" d="M348,460.4c-0.4,0-0.7,0.2-0.9,0.5h-0.5l-1.4,4.1l-1.4-4.1h-1.7l2.3,5.8c-0.1,0.3-0.2,0.6-0.4,0.8&#10;&#9;&#9;&#9;c-0.2,0.2-0.4,0.3-0.8,0.3c-0.2,0-0.4,0-0.7-0.1l0.1,1.2c0.3,0.1,0.6,0.1,0.9,0.1c0.3,0,0.6,0,0.8-0.1c0.2-0.1,0.4-0.1,0.6-0.3&#10;&#9;&#9;&#9;c0.2-0.1,0.3-0.3,0.4-0.4c0.1-0.2,0.3-0.4,0.4-0.8l0.4-1l1.5-4c0.1,0,0.2,0.1,0.3,0.1C349.4,462.6,349.4,460.4,348,460.4z" style="fill: rgb(49, 63, 91);" transform="matrix(1, 0, 0, 1, 0, -7.275957614183426e-12)"/>
<path class="st0" d="M608.9,202.3c-2.9-0.3-5.8,1.3-7.2,3.8c-3.1-4.3-9.7-5.6-12.9,0c-0.2,0.4,0.1,0.9,0.6,0.8&#10;&#9;&#9;c0.9-0.1,1.3-0.9,1.9-1.5c3.5-3.6,8.2-0.3,9.6,3.4c0.3,0.8,1.7,1,1.9-0.1c0.5-2.8,2.8-4.2,5.5-4.4c3.1-0.3,3.7,1.8,5.4,3.7&#10;&#9;&#9;c0.4,0.4,1.1,0.4,1.2-0.2C615.9,204.4,611.6,202.5,608.9,202.3z" style="fill: rgb(49, 63, 91);" transform="matrix(1, 0, 0, 1, 0, -3.637978807091713e-12)"/><path class="st0" d="M152.2,130.1c-2.9,0.4-5.4,2.6-6.2,5.3c-4-3.5-10.7-3.2-12.6,2.8c-0.1,0.4,0.3,0.8,0.7,0.7&#10;&#9;&#9;c0.9-0.3,1.1-1.2,1.6-1.9c2.6-4.3,8-2.1,10.1,1.1c0.5,0.7,1.9,0.5,1.9-0.5c-0.1-2.8,1.8-4.7,4.3-5.5c2.9-1,4,0.9,6.1,2.4&#10;&#9;&#9;c0.4,0.3,1.1,0.2,1.2-0.5C159.4,130.6,154.9,129.7,152.2,130.1z" style="fill: rgb(49, 63, 91);" transform="matrix(1, 0, 0, 1, 0, -3.637978807091713e-12)"/><path class="st0" d="M308.2,187.7c-1.4,0-2.8,0.8-3.4,2c-1.6-2-4.9-2.5-6.3,0.3c-0.1,0.2,0.1,0.4,0.3,0.4c0.4-0.1,0.6-0.5,0.9-0.8&#10;&#9;&#9;c1.6-1.9,4-0.3,4.8,1.4c0.2,0.4,0.9,0.4,0.9-0.1c0.2-1.4,1.2-2.1,2.5-2.3c1.5-0.2,1.9,0.8,2.7,1.7c0.2,0.2,0.5,0.2,0.6-0.1&#10;&#9;&#9;C311.6,188.5,309.5,187.7,308.2,187.7z" style="fill: rgb(49, 63, 91);" transform="matrix(1, 0, 0, 1, 0, -3.637978807091713e-12)"/><path class="st0" d="M415.5,56.8c-1.4-0.5-2.9-0.1-3.9,0.9c-1-2.4-3.9-3.8-6.1-1.6c-0.1,0.2,0,0.4,0.2,0.5c0.4,0.1,0.7-0.3,1.1-0.5&#10;&#9;&#9;c2.1-1.3,3.9,0.9,4.2,2.7c0.1,0.4,0.7,0.7,0.9,0.2c0.6-1.3,1.8-1.7,3.1-1.4c1.5,0.2,1.6,1.3,2.1,2.4c0.1,0.2,0.5,0.3,0.6,0.1&#10;&#9;&#9;C418.6,58.6,416.8,57.2,415.5,56.8z" style="fill: rgb(49, 63, 91);" transform="matrix(1, 0, 0, 1, 0, -3.637978807091713e-12)"/><g transform="matrix(1, 0, 0, 1, 0, -7.275957614183426e-12)">
			<path class="st1" d="M300.9,89.9c0,3.3,3.7,7,7,7c-3.3,0-7,3.7-7,7c0-3.3-3.7-7-7-7C297.3,96.9,300.9,93.2,300.9,89.9z" style="fill: rgb(255, 255, 255);"/>
			<path class="st0" d="M301.8,103.9H300c0-2.8-3.3-6-6-6V96c2.8,0,6-3.3,6-6h1.8c0,2.8,3.3,6,6,6v1.8&#10;&#9;&#9;&#9;&#9;C305.1,97.8,301.8,101.1,301.8,103.9z M297.2,96.9c1.5,0.8,2.8,2.2,3.7,3.7c0.8-1.5,2.2-2.8,3.7-3.7c-1.5-0.8-2.8-2.2-3.7-3.7&#10;&#9;&#9;&#9;&#9;C300.1,94.7,298.7,96.1,297.2,96.9z" style="fill: rgb(49, 63, 91);"/>
		</g><path class="st1" d="M300.9,89.9c0,3.3,3.7,7,7,7c-3.3,0-7,3.7-7,7c0-3.3-3.7-7-7-7C297.3,96.9,300.9,93.2,300.9,89.9z" style="fill: rgb(255, 255, 255);" transform="matrix(1, 0, 0, 1, 0, -1.0913936421275139e-11)"/><path class="st0" d="M301.8,103.9H300c0-2.8-3.3-6-6-6V96c2.8,0,6-3.3,6-6h1.8c0,2.8,3.3,6,6,6v1.8&#10;&#9;&#9;&#9;&#9;C305.1,97.8,301.8,101.1,301.8,103.9z M297.2,96.9c1.5,0.8,2.8,2.2,3.7,3.7c0.8-1.5,2.2-2.8,3.7-3.7c-1.5-0.8-2.8-2.2-3.7-3.7&#10;&#9;&#9;&#9;&#9;C300.1,94.7,298.7,96.1,297.2,96.9z" style="fill: rgb(49, 63, 91);" transform="matrix(1, 0, 0, 1, 0, -1.0913936421275139e-11)"/><g transform="matrix(1, 0, 0, 1, 0, -7.275957614183426e-12)">
			<path class="st1" d="M521.3,191.9c0,3.3,3.7,7,7,7c-3.3,0-7,3.7-7,7c0-3.3-3.7-7-7-7C517.6,198.9,521.3,195.2,521.3,191.9z" style="fill: rgb(255, 255, 255);"/>
			<path class="st0" d="M522.2,205.9h-1.8c0-2.8-3.3-6-6-6V198c2.8,0,6-3.3,6-6h1.8c0,2.8,3.3,6,6,6v1.8&#10;&#9;&#9;&#9;&#9;C525.5,199.8,522.2,203.1,522.2,205.9z M517.6,198.9c1.5,0.8,2.8,2.2,3.7,3.7c0.8-1.5,2.2-2.8,3.7-3.7c-1.5-0.8-2.8-2.2-3.7-3.7&#10;&#9;&#9;&#9;&#9;C520.5,196.7,519.1,198.1,517.6,198.9z" style="fill: rgb(49, 63, 91);"/>
		</g><path class="st1" d="M521.3,191.9c0,3.3,3.7,7,7,7c-3.3,0-7,3.7-7,7c0-3.3-3.7-7-7-7C517.6,198.9,521.3,195.2,521.3,191.9z" style="fill: rgb(255, 255, 255);" transform="matrix(1, 0, 0, 1, 0, -1.0913936421275139e-11)"/><path class="st0" d="M522.2,205.9h-1.8c0-2.8-3.3-6-6-6V198c2.8,0,6-3.3,6-6h1.8c0,2.8,3.3,6,6,6v1.8&#10;&#9;&#9;&#9;&#9;C525.5,199.8,522.2,203.1,522.2,205.9z M517.6,198.9c1.5,0.8,2.8,2.2,3.7,3.7c0.8-1.5,2.2-2.8,3.7-3.7c-1.5-0.8-2.8-2.2-3.7-3.7&#10;&#9;&#9;&#9;&#9;C520.5,196.7,519.1,198.1,517.6,198.9z" style="fill: rgb(49, 63, 91);" transform="matrix(1, 0, 0, 1, 0, -1.0913936421275139e-11)"/><g transform="matrix(1, 0, 0, 1, 0, -7.275957614183426e-12)">
			<path class="st1" d="M502.8,69c0,3.3,3.7,7,7,7c-3.3,0-7,3.7-7,7c0-3.3-3.7-7-7-7C499.1,76,502.8,72.3,502.8,69z" style="fill: rgb(255, 255, 255);"/>
			<path class="st0" d="M503.7,83h-1.8c0-2.8-3.3-6-6-6v-1.8c2.8,0,6-3.3,6-6h1.8c0,2.8,3.3,6,6,6v1.8C507,76.9,503.7,80.2,503.7,83&#10;&#9;&#9;&#9;&#9;z M499.1,76c1.5,0.8,2.8,2.2,3.7,3.7c0.8-1.5,2.2-2.8,3.7-3.7c-1.5-0.8-2.8-2.2-3.7-3.7C501.9,73.8,500.6,75.2,499.1,76z" style="fill: rgb(49, 63, 91);"/>
		</g><path class="st1" d="M502.8,69c0,3.3,3.7,7,7,7c-3.3,0-7,3.7-7,7c0-3.3-3.7-7-7-7C499.1,76,502.8,72.3,502.8,69z" style="fill: rgb(255, 255, 255);" transform="matrix(1, 0, 0, 1, 0, -1.0913936421275139e-11)"/><path class="st0" d="M503.7,83h-1.8c0-2.8-3.3-6-6-6v-1.8c2.8,0,6-3.3,6-6h1.8c0,2.8,3.3,6,6,6v1.8C507,76.9,503.7,80.2,503.7,83&#10;&#9;&#9;&#9;&#9;z M499.1,76c1.5,0.8,2.8,2.2,3.7,3.7c0.8-1.5,2.2-2.8,3.7-3.7c-1.5-0.8-2.8-2.2-3.7-3.7C501.9,73.8,500.6,75.2,499.1,76z" style="fill: rgb(49, 63, 91);" transform="matrix(1, 0, 0, 1, 0, -1.0913936421275139e-11)"/><g transform="matrix(1, 0, 0, 1, 0, -7.275957614183426e-12)">
			<path class="st1" d="M317.3,282.4c0,3.3,3.7,7,7,7c-3.3,0-7,3.7-7,7c0-3.3-3.7-7-7-7C313.7,289.3,317.3,285.7,317.3,282.4z" style="fill: rgb(255, 255, 255);"/>
			<path class="st0" d="M318.2,296.3h-1.8c0-2.8-3.3-6-6-6v-1.8c2.8,0,6-3.3,6-6h1.8c0,2.8,3.3,6,6,6v1.8&#10;&#9;&#9;&#9;&#9;C321.5,290.2,318.2,293.5,318.2,296.3z M313.6,289.3c1.5,0.8,2.8,2.2,3.7,3.7c0.8-1.5,2.2-2.8,3.7-3.7c-1.5-0.8-2.8-2.2-3.7-3.7&#10;&#9;&#9;&#9;&#9;C316.5,287.2,315.2,288.5,313.6,289.3z" style="fill: rgb(49, 63, 91);"/>
		</g><path class="st1" d="M317.3,282.4c0,3.3,3.7,7,7,7c-3.3,0-7,3.7-7,7c0-3.3-3.7-7-7-7C313.7,289.3,317.3,285.7,317.3,282.4z" style="fill: rgb(255, 255, 255);" transform="matrix(1, 0, 0, 1, 0, -1.0913936421275139e-11)"/><path class="st0" d="M318.2,296.3h-1.8c0-2.8-3.3-6-6-6v-1.8c2.8,0,6-3.3,6-6h1.8c0,2.8,3.3,6,6,6v1.8&#10;&#9;&#9;&#9;&#9;C321.5,290.2,318.2,293.5,318.2,296.3z M313.6,289.3c1.5,0.8,2.8,2.2,3.7,3.7c0.8-1.5,2.2-2.8,3.7-3.7c-1.5-0.8-2.8-2.2-3.7-3.7&#10;&#9;&#9;&#9;&#9;C316.5,287.2,315.2,288.5,313.6,289.3z" style="fill: rgb(49, 63, 91);" transform="matrix(1, 0, 0, 1, 0, -1.0913936421275139e-11)"/><path d="M 416.5 268.100006 H 468.400002 V 270.000006 H 416.5 V 268.100006 Z" class="st0" style="fill: rgb(49, 63, 91);" transform="matrix(1, 0, 0, 1, 0, -7.275957614183426e-12)"/><path d="M 424.200012 263.899994 H 463.600014 V 265.599994 H 424.200012 V 263.899994 Z" class="st0" style="fill: rgb(49, 63, 91);" transform="matrix(1, 0, 0, 1, 0, -7.275957614183426e-12)"/><path d="M 424.200012 273.200012 H 463.600014 V 274.900012 H 424.200012 V 273.200012 Z" class="st0" style="fill: rgb(49, 63, 91);" transform="matrix(1, 0, 0, 1, 0, -7.275957614183426e-12)"/><path d="M 197.199997 270.700012 H 281.699997 V 272.400012 H 197.199997 V 270.700012 Z" class="st0" style="fill: rgb(49, 63, 91);" transform="matrix(1, 0, 0, 1, 0, -7.275957614183426e-12)"/><path d="M 204.899994 266.299988 H 244.299995 V 267.999988 H 204.899994 V 266.299988 Z" class="st0" style="fill: rgb(49, 63, 91);" transform="matrix(1, 0, 0, 1, 0, -7.275957614183426e-12)"/><path d="M 204.899994 275.700012 H 269.699997 V 277.400012 H 204.899994 V 275.700012 Z" class="st0" style="fill: rgb(49, 63, 91);" transform="matrix(1, 0, 0, 1, 0, -7.275957614183426e-12)"/><path d="M 308 337.700012 H 392.5 V 339.400012 H 308 V 337.700012 Z" class="st0" style="fill: rgb(49, 63, 91);" transform="matrix(1, 0, 0, 1, 0, -7.275957614183426e-12)"/><path d="M 320.5 333.299988 H 359.900002 V 334.999988 H 320.5 V 333.299988 Z" class="st0" style="fill: rgb(49, 63, 91);" transform="matrix(1, 0, 0, 1, 0, -7.275957614183426e-12)"/><path d="M 327.5 342.700012 H 392.300003 V 344.400012 H 327.5 V 342.700012 Z" class="st0" style="fill: rgb(49, 63, 91);" transform="matrix(1, 0, 0, 1, 0, -7.275957614183426e-12)"/><path d="M 107.400002 318.799988 H 191.900002 V 320.499988 H 107.400002 V 318.799988 Z" class="st0" style="fill: rgb(49, 63, 91);" transform="matrix(1, 0, 0, 1, 0, -7.275957614183426e-12)"/><path d="M 119.800003 314.399994 H 159.200005 V 316.099994 H 119.800003 V 314.399994 Z" class="st0" style="fill: rgb(49, 63, 91);" transform="matrix(1, 0, 0, 1, 0, -7.275957614183426e-12)"/><path d="M 191.100006 365.799988 H 230.500008 V 367.499988 H 191.100006 V 365.799988 Z" class="st0" style="fill: rgb(49, 63, 91);" transform="matrix(1, 0, 0, 1, 0, -7.275957614183426e-12)"/><path d="M 191.100006 375.299988 H 230.500008 V 376.999988 H 191.100006 V 375.299988 Z" class="st0" style="fill: rgb(49, 63, 91);" transform="matrix(1, 0, 0, 1, 0, -7.275957614183426e-12)"/><path d="M 176.699997 370.200012 H 244.299995 V 371.900012 H 176.699997 V 370.200012 Z" class="st0" style="fill: rgb(49, 63, 91);" transform="matrix(1, 0, 0, 1, 0, -7.275957614183426e-12)"/><path d="M 517.400024 337.399994 H 601.900024 V 339.099994 H 517.400024 V 337.399994 Z" class="st0" style="fill: rgb(49, 63, 91);" transform="matrix(1, 0, 0, 1, 0, -7.275957614183426e-12)"/><path d="M 529.799988 333 H 569.199989 V 334.7 H 529.799988 V 333 Z" class="st0" style="fill: rgb(49, 63, 91);" transform="matrix(1, 0, 0, 1, 0, -7.275957614183426e-12)"/><path d="M 536.900024 342.399994 H 601.700027 V 344.099994 H 536.900024 V 342.399994 Z" class="st0" style="fill: rgb(49, 63, 91);" transform="matrix(1, 0, 0, 1, 0, -7.275957614183426e-12)"/><g transform="matrix(1, 0, 0, 1, 0, -7.275957614183426e-12)">
			<path class="st1" d="M279.3,330.1c-2.4-3.6-6.5-6.1-11.1-6.1c-4.5,0-8.4,2.2-10.8,5.6c-1.6-2.5-4.3-4.1-7.5-4.1&#10;&#9;&#9;&#9;&#9;c-1.7,0-3.3,0.5-4.6,1.3c-1-3.8-4.5-6.5-8.5-6.5c-0.5,0-1,0-1.4,0.1c-1.9-5.1-6.7-8.7-12.4-8.7c-5.7,0-10.6,3.6-12.4,8.7&#10;&#9;&#9;&#9;&#9;c-0.5-0.1-1-0.1-1.5-0.1c-4.3,0-7.9,3.1-8.7,7.2c-1.5-1.2-3.5-2-5.6-2c-3.5,0-6.5,2-7.9,4.9c-1.1-0.3-2.2-0.5-3.4-0.5&#10;&#9;&#9;&#9;&#9;c-7.3,0-13.3,5.9-13.3,13.3c0,0.6,0.1,1.2,0.1,1.8c0,0.1,0,0.3,0,0.4c0,6.1,3.4,11.1,7.5,11.1h96.4c0.5,0,1-0.1,1.5-0.2&#10;&#9;&#9;&#9;&#9;c0.8,0.1,1.6,0.2,2.4,0.2c7.3,0,13.3-5.9,13.3-13.3C291.1,336.4,285.9,330.8,279.3,330.1z" style="fill: rgb(255, 255, 255);"/>
			<path class="st0" d="M277.8,357.4c-0.8,0-1.5-0.1-2.3-0.2c-0.5,0.1-1,0.2-1.5,0.2h-96.4c-4.6,0-8.4-5.4-8.4-12c0-0.1,0-0.2,0-0.3&#10;&#9;&#9;&#9;&#9;l0-0.1c-0.1-0.7-0.1-1.2-0.1-1.8c0-7.8,6.4-14.2,14.2-14.2c1,0,2,0.1,3,0.3c1.8-3,4.9-4.8,8.4-4.8c1.8,0,3.5,0.5,5,1.4&#10;&#9;&#9;&#9;&#9;c1.3-3.9,5-6.6,9.3-6.6c0.3,0,0.6,0,0.9,0c2.2-5.2,7.4-8.6,13-8.6c5.7,0,10.8,3.4,13,8.6c0.3,0,0.6,0,0.8,0c4,0,7.6,2.5,9.1,6.1&#10;&#9;&#9;&#9;&#9;c1.3-0.6,2.7-0.9,4.1-0.9c2.9,0,5.7,1.3,7.5,3.5c2.7-3.2,6.6-5,10.8-5c4.7,0,9,2.3,11.7,6.1c7,1,12.2,6.9,12.2,14&#10;&#9;&#9;&#9;&#9;C292,351.1,285.6,357.4,277.8,357.4z M275.4,355.3l0.2,0c0.8,0.1,1.5,0.2,2.2,0.2c6.8,0,12.3-5.5,12.3-12.3&#10;&#9;&#9;&#9;&#9;c0-6.3-4.7-11.6-11-12.3l-0.4,0l-0.2-0.4c-2.3-3.5-6.2-5.6-10.4-5.6c-4,0-7.8,2-10.1,5.2l-0.8,1.1l-0.7-1.2&#10;&#9;&#9;&#9;&#9;c-1.5-2.3-4-3.7-6.7-3.7c-1.5,0-2.9,0.4-4.1,1.2l-1,0.6l-0.3-1.2c-0.9-3.4-4.1-5.8-7.7-5.8c-0.4,0-0.8,0-1.3,0.1l-0.7,0.1&#10;&#9;&#9;&#9;&#9;l-0.3-0.7c-1.8-4.9-6.4-8.1-11.6-8.1c-5.2,0-9.8,3.3-11.6,8.1l-0.3,0.7l-0.8-0.1c-0.5-0.1-0.9-0.1-1.3-0.1&#10;&#9;&#9;&#9;&#9;c-3.8,0-7.1,2.7-7.8,6.4l-0.3,1.5l-1.2-1c-1.4-1.2-3.2-1.8-5-1.8c-3,0-5.8,1.7-7.1,4.4l-0.3,0.7l-0.7-0.2&#10;&#9;&#9;&#9;&#9;c-1.1-0.3-2.1-0.4-3.2-0.4c-6.8,0-12.3,5.5-12.3,12.3c0,0.5,0,1,0.1,1.6l0,0.1l0,0.5c0,5.6,3,10.1,6.6,10.1h96.4&#10;&#9;&#9;&#9;&#9;c0.4,0,0.8-0.1,1.2-0.2L275.4,355.3z" style="fill: rgb(49, 63, 91);"/>
		</g><path d="M 236.200006 337.399994 A 11.6 11.6 0 0 1 224.600006 348.999994 A 11.6 11.6 0 0 1 213.000006 337.399994 A 11.6 11.6 0 0 1 224.600006 325.799994 A 11.6 11.6 0 0 1 236.200006 337.399994 Z" class="st2" style="fill: rgb(140, 212, 234);" transform="matrix(1, 0, 0, 1, 0, -7.275957614183426e-12)"/><g transform="matrix(1, 0, 0, 1, 0, -7.275957614183426e-12)">
			<path class="st1" d="M272.1,216.9c-3.4-5.2-9.2-8.6-15.8-8.6c-6.4,0-12,3.2-15.4,8c-2.2-3.5-6.2-5.9-10.7-5.9&#10;&#9;&#9;&#9;&#9;c-2.4,0-4.7,0.7-6.6,1.9c-1.5-5.3-6.4-9.3-12.2-9.3c-0.7,0-1.4,0.1-2,0.2c-2.6-7.2-9.6-12.4-17.7-12.4c-8.2,0-15.1,5.2-17.7,12.4&#10;&#9;&#9;&#9;&#9;c-0.7-0.1-1.4-0.2-2.1-0.2c-6.2,0-11.3,4.4-12.4,10.2c-2.2-1.8-4.9-2.8-8-2.8c-5,0-9.3,2.9-11.3,7c-1.6-0.4-3.2-0.7-4.9-0.7&#10;&#9;&#9;&#9;&#9;c-10.4,0-18.9,8.5-18.9,18.9c0,0.9,0.1,1.7,0.2,2.5c0,0.2,0,0.4,0,0.6c0,8.7,4.8,15.8,10.7,15.8h137.3c0.7,0,1.4-0.1,2.1-0.3&#10;&#9;&#9;&#9;&#9;c1.1,0.2,2.2,0.3,3.4,0.3c10.4,0,18.9-8.5,18.9-18.9C288.8,225.9,281.5,217.9,272.1,216.9z" style="fill: rgb(255, 255, 255);"/>
			<path class="st0" d="M269.9,255.4c-1.1,0-2.2-0.1-3.3-0.3c-0.7,0.2-1.5,0.3-2.2,0.3H127.1c-6.4,0-11.6-7.5-11.6-16.7&#10;&#9;&#9;&#9;&#9;c0-0.1,0-0.3,0-0.4l0-0.2c-0.1-1-0.2-1.8-0.2-2.5c0-10.9,8.9-19.8,19.8-19.8c1.4,0,2.9,0.2,4.4,0.5c2.4-4.3,6.9-6.9,11.8-6.9&#10;&#9;&#9;&#9;&#9;c2.6,0,5.2,0.8,7.4,2.2c1.7-5.6,7-9.6,13-9.6c0.5,0,1,0,1.5,0.1c3-7.4,10.3-12.3,18.3-12.3c8,0,15.3,4.9,18.3,12.3&#10;&#9;&#9;&#9;&#9;c0.5-0.1,1-0.1,1.5-0.1c5.7,0,10.7,3.6,12.7,8.8c1.9-0.9,3.9-1.4,6.1-1.4c4.2,0,8.1,1.9,10.7,5.3c3.7-4.6,9.4-7.4,15.4-7.4&#10;&#9;&#9;&#9;&#9;c6.6,0,12.7,3.2,16.4,8.7c9.8,1.3,17.1,9.7,17.1,19.6C289.7,246.6,280.8,255.4,269.9,255.4z M266.5,253.3l0.2,0&#10;&#9;&#9;&#9;&#9;c1.1,0.2,2.2,0.3,3.2,0.3c9.9,0,18-8.1,18-18c0-9.2-6.9-16.8-15.9-17.8l-0.4,0l-0.2-0.4c-3.3-5.1-9-8.2-15.1-8.2&#10;&#9;&#9;&#9;&#9;c-5.8,0-11.3,2.9-14.7,7.6l-0.8,1.1l-0.7-1.2c-2.2-3.4-5.9-5.5-9.9-5.5c-2.1,0-4.3,0.6-6.1,1.7l-1,0.6l-0.3-1.2&#10;&#9;&#9;&#9;&#9;c-1.4-5.1-6-8.6-11.3-8.6c-0.6,0-1.2,0.1-1.9,0.2l-0.7,0.1l-0.3-0.7c-2.6-7.1-9.4-11.8-16.9-11.8c-7.5,0-14.3,4.7-16.9,11.8&#10;&#9;&#9;&#9;&#9;l-0.3,0.7l-0.8-0.1c-0.7-0.1-1.4-0.2-2-0.2c-5.6,0-10.4,4-11.5,9.5l-0.3,1.5l-1.2-1c-2.1-1.7-4.7-2.6-7.4-2.6&#10;&#9;&#9;&#9;&#9;c-4.5,0-8.5,2.5-10.5,6.5l-0.3,0.7l-0.7-0.2c-1.6-0.4-3.1-0.6-4.6-0.6c-9.9,0-18,8.1-18,18c0,0.7,0.1,1.5,0.2,2.4l0,0.1l0,0.3&#10;&#9;&#9;&#9;&#9;c0,0.1,0,0.2,0,0.3c0,8.2,4.4,14.8,9.8,14.8h137.3c0.6,0,1.3-0.1,1.9-0.3L266.5,253.3z" style="fill: rgb(49, 63, 91);"/>
		</g><path d="M 202.700006 210.5 A 11.6 11.6 0 0 1 191.100006 222.1 A 11.6 11.6 0 0 1 179.500006 210.5 A 11.6 11.6 0 0 1 191.100006 198.9 A 11.6 11.6 0 0 1 202.700006 210.5 Z" class="st2" style="fill: rgb(140, 212, 234);" transform="matrix(1, 0, 0, 1, 0, -7.275957614183426e-12)"/><g transform="matrix(1, 0, 0, 1, 0, -7.275957614183426e-12)">
			<path class="st1" d="M182.2,245.4c-2.4-3.6-6.5-6.1-11.1-6.1c-4.5,0-8.4,2.2-10.8,5.6c-1.6-2.5-4.3-4.1-7.5-4.1&#10;&#9;&#9;&#9;&#9;c-1.7,0-3.3,0.5-4.6,1.3c-1-3.8-4.5-6.5-8.5-6.5c-0.5,0-1,0-1.4,0.1c-1.9-5.1-6.7-8.7-12.4-8.7c-5.7,0-10.6,3.6-12.4,8.7&#10;&#9;&#9;&#9;&#9;c-0.5-0.1-1-0.1-1.5-0.1c-4.3,0-7.9,3.1-8.7,7.2c-1.5-1.2-3.5-2-5.6-2c-3.5,0-6.5,2-7.9,4.9c-1.1-0.3-2.2-0.5-3.4-0.5&#10;&#9;&#9;&#9;&#9;c-7.3,0-13.3,5.9-13.3,13.3c0,0.6,0.1,1.2,0.1,1.8c0,0.1,0,0.3,0,0.4c0,6.1,3.4,11.1,7.5,11.1h96.4c0.5,0,1-0.1,1.5-0.2&#10;&#9;&#9;&#9;&#9;c0.8,0.1,1.6,0.2,2.4,0.2c7.3,0,13.3-5.9,13.3-13.3C194,251.8,188.9,246.2,182.2,245.4z" style="fill: rgb(255, 255, 255);"/>
			<path class="st0" d="M180.7,272.8c-0.8,0-1.5-0.1-2.3-0.2c-0.5,0.1-1,0.2-1.5,0.2H80.5c-4.6,0-8.4-5.4-8.4-12c0-0.1,0-0.2,0-0.3&#10;&#9;&#9;&#9;&#9;l0-0.1c-0.1-0.7-0.1-1.2-0.1-1.8c0-7.8,6.4-14.2,14.2-14.2c1,0,2,0.1,3,0.3c1.8-3,4.9-4.8,8.4-4.8c1.8,0,3.5,0.5,5,1.4&#10;&#9;&#9;&#9;&#9;c1.3-3.9,5-6.6,9.3-6.6c0.3,0,0.6,0,0.9,0c2.2-5.2,7.4-8.6,13-8.6c5.7,0,10.8,3.4,13,8.6c0.3,0,0.6,0,0.8,0c4,0,7.6,2.5,9.1,6.1&#10;&#9;&#9;&#9;&#9;c1.3-0.6,2.7-0.9,4.1-0.9c2.9,0,5.7,1.3,7.5,3.5c2.7-3.2,6.6-5,10.8-5c4.7,0,9,2.3,11.7,6.1c7,1,12.2,6.9,12.2,14&#10;&#9;&#9;&#9;&#9;C194.9,266.4,188.6,272.8,180.7,272.8z M178.3,270.7l0.2,0c0.8,0.1,1.5,0.2,2.2,0.2c6.8,0,12.3-5.5,12.3-12.3&#10;&#9;&#9;&#9;&#9;c0-6.3-4.7-11.6-11-12.3l-0.4,0l-0.2-0.4c-2.3-3.5-6.2-5.6-10.4-5.6c-4,0-7.8,2-10.1,5.2l-0.8,1.1l-0.7-1.2&#10;&#9;&#9;&#9;&#9;c-1.5-2.3-4-3.7-6.7-3.7c-1.5,0-2.9,0.4-4.1,1.2l-1,0.6l-0.3-1.2c-0.9-3.4-4.1-5.8-7.7-5.8c-0.4,0-0.8,0-1.3,0.1l-0.7,0.1&#10;&#9;&#9;&#9;&#9;l-0.3-0.7c-1.8-4.9-6.4-8.1-11.6-8.1c-5.2,0-9.8,3.3-11.6,8.1l-0.3,0.7l-0.8-0.1c-0.5-0.1-0.9-0.1-1.3-0.1&#10;&#9;&#9;&#9;&#9;c-3.8,0-7.1,2.7-7.8,6.4l-0.3,1.5l-1.2-1c-1.4-1.2-3.2-1.8-5-1.8c-3,0-5.8,1.7-7.1,4.4l-0.3,0.7l-0.7-0.2&#10;&#9;&#9;&#9;&#9;c-1.1-0.3-2.1-0.4-3.2-0.4c-6.8,0-12.3,5.5-12.3,12.3c0,0.5,0,1,0.1,1.6l0,0.1l0,0.5c0,5.6,2.9,10.1,6.6,10.1h96.4&#10;&#9;&#9;&#9;&#9;c0.4,0,0.8-0.1,1.2-0.2L178.3,270.7z" style="fill: rgb(49, 63, 91);"/>
		</g><path d="M 124.499998 255.399994 A 10.4 10.4 0 0 1 114.099998 265.799994 A 10.4 10.4 0 0 1 103.699999 255.399994 A 10.4 10.4 0 0 1 114.099998 244.999994 A 10.4 10.4 0 0 1 124.499998 255.399994 Z" class="st2" style="fill: rgb(140, 212, 234);" transform="matrix(1, 0, 0, 1, 0, -7.275957614183426e-12)"/><g transform="matrix(1, 0, 0, 1, 0, -7.275957614183426e-12)">
			<path class="st1" d="M261.4,143.6c0-3-2.5-5.5-5.5-5.5c-0.2,0-0.4,0-0.6,0c-0.6-3.1-3.4-5.5-6.7-5.5c-1.5,0-2.8,0.5-4,1.3&#10;&#9;&#9;&#9;&#9;c-1.1-2.3-3.4-3.9-6.1-3.9c-3.8,0-6.8,3-6.8,6.8c0,0.4,0,0.9,0.1,1.3c-3,0.1-5.4,2.5-5.4,5.5c0,0.1,0,0.2,0,0.2&#10;&#9;&#9;&#9;&#9;c0,0.1,0,0.3,0,0.4c0,2.7,1.2,4.9,2.8,4.9h2.8c0,0,0,0,0,0c0,0,0,0,0,0h23.9c0,0,0,0,0,0c0,0,0,0,0,0h2.8c1.5,0,2.8-2.2,2.8-4.9&#10;&#9;&#9;&#9;&#9;c0-0.1,0-0.3,0-0.4C261.4,143.7,261.4,143.6,261.4,143.6z" style="fill: rgb(255, 255, 255);"/>
			<path class="st0" d="M258.7,150h-29.4c-2.1,0-3.7-2.5-3.7-5.8c0-0.2,0-0.3,0-0.5c0-0.1,0-0.1,0-0.2c0-3.2,2.2-5.8,5.3-6.3&#10;&#9;&#9;&#9;&#9;c0-0.2,0-0.3,0-0.5c0-4.3,3.5-7.7,7.7-7.7c2.6,0,5,1.3,6.4,3.5c1.1-0.6,2.4-0.9,3.6-0.9c3.4,0,6.4,2.3,7.4,5.5&#10;&#9;&#9;&#9;&#9;c3.5,0.1,6.3,2.9,6.3,6.4c0,0.1,0,0.1,0,0.2c0,0.1,0,0.3,0,0.4C262.3,147.5,260.7,150,258.7,150z M238.6,130.9&#10;&#9;&#9;&#9;&#9;c-3.2,0-5.9,2.6-5.9,5.9c0,0.4,0,0.7,0.1,1.1l0.2,1.1l-1.1,0c-2.5,0.1-4.5,2.1-4.5,4.6l0,0.2c0,0.2,0,0.3,0,0.4c0,2.3,1,4,1.8,4&#10;&#9;&#9;&#9;&#9;h29.4c0.9,0,1.8-1.7,1.8-4c0-0.1,0-0.2,0-0.4l0-0.1l0-0.1c0-2.6-2.1-4.7-4.6-4.7c-0.2,0-0.3,0-0.5,0l-0.8,0.1l-0.2-0.8&#10;&#9;&#9;&#9;&#9;c-0.5-2.8-3-4.8-5.8-4.8c-1.2,0-2.4,0.4-3.4,1.1l-0.9,0.6l-0.5-1C242.9,132.2,240.8,130.9,238.6,130.9z" style="fill: rgb(49, 63, 91);"/>
		</g><path d="M 245.500003 140.300003 A 4.7 4.7 0 0 1 240.800003 145.000003 A 4.7 4.7 0 0 1 236.100003 140.300003 A 4.7 4.7 0 0 1 240.800003 135.600003 A 4.7 4.7 0 0 1 245.500003 140.300003 Z" class="st2" style="fill: rgb(140, 212, 234);" transform="matrix(1, 0, 0, 1, 0, -7.275957614183426e-12)"/><g transform="matrix(1, 0, 0, 1, 0, -7.275957614183426e-12)">
			<path class="st1" d="M595.4,129.2c0-5-4-9-9-9c-0.3,0-0.6,0-1,0.1c-1-5.1-5.5-9-10.9-9c-2.4,0-4.6,0.8-6.5,2.1&#10;&#9;&#9;&#9;&#9;c-1.8-3.7-5.6-6.3-10-6.3c-6.1,0-11.1,5-11.1,11.1c0,0.7,0.1,1.4,0.2,2.1c-4.9,0.1-8.8,4.1-8.8,9c0,0.1,0,0.3,0,0.4&#10;&#9;&#9;&#9;&#9;c0,0.2,0,0.4,0,0.7c0,4.4,2,7.9,4.5,7.9h4.5c0,0,0,0,0,0c0,0,0,0,0,0h38.9c0,0,0,0,0,0c0,0,0,0,0,0h4.5c2.5,0,4.5-3.6,4.5-7.9&#10;&#9;&#9;&#9;&#9;c0-0.2,0-0.5,0-0.7C595.3,129.4,595.4,129.3,595.4,129.2z" style="fill: rgb(255, 255, 255);"/>
			<path class="st0" d="M590.9,139.1h-48c-3,0-5.4-3.9-5.4-8.9c0-0.2,0-0.5,0-0.7l0-0.1c0-0.1,0-0.2,0-0.3c0-5.1,3.7-9.2,8.6-9.8&#10;&#9;&#9;&#9;&#9;c0-0.4-0.1-0.9-0.1-1.3c0-6.6,5.4-12,12-12c4.2,0,8.2,2.3,10.3,5.9c1.9-1.1,3.9-1.7,6.1-1.7c5.5,0,10.3,3.7,11.6,9&#10;&#9;&#9;&#9;&#9;c5.6-0.1,10.2,4.4,10.2,9.9c0,0.1,0,0.2,0,0.3l0,0.1c0,0.2,0,0.4,0,0.6C596.3,135.2,593.9,139.1,590.9,139.1z M558.1,107.9&#10;&#9;&#9;&#9;&#9;c-5.6,0-10.2,4.6-10.2,10.2c0,0.6,0.1,1.3,0.2,1.9l0.2,1.1l-1.1,0c-4.4,0.1-7.9,3.7-7.9,8.1c0,0.1,0,0.1,0,0.2l0,0.2&#10;&#9;&#9;&#9;&#9;c0,0.3,0,0.5,0,0.7c0,4.1,1.9,7,3.6,7h48c1.7,0,3.6-2.9,3.6-7c0-0.2,0-0.4,0-0.6l0-0.2c0-0.1,0-0.1,0-0.2c0-4.5-3.6-8.1-8.1-8.1&#10;&#9;&#9;&#9;&#9;c-0.3,0-0.6,0-0.9,0l-0.8,0.1l-0.2-0.8c-0.9-4.8-5.1-8.3-10-8.3c-2.1,0-4.2,0.7-5.9,1.9l-0.9,0.6l-0.5-1&#10;&#9;&#9;&#9;&#9;C565.5,110.1,562,107.9,558.1,107.9z" style="fill: rgb(49, 63, 91);"/>
		</g><path d="M 562.2 117.900002 A 4.7 4.7 0 0 1 557.5 122.600001 A 4.7 4.7 0 0 1 552.8 117.900002 A 4.7 4.7 0 0 1 557.5 113.200002 A 4.7 4.7 0 0 1 562.2 117.900002 Z" class="st2" style="fill: rgb(140, 212, 234);" transform="matrix(1, 0, 0, 1, 0, -7.275957614183426e-12)"/><g transform="matrix(1, 0, 0, 1, 0, -7.275957614183426e-12)">
			<path class="st1" d="M602.8,140.7c0-2.4-2-4.4-4.4-4.4c-0.2,0-0.3,0-0.5,0c-0.5-2.5-2.7-4.4-5.3-4.4c-1.2,0-2.3,0.4-3.2,1&#10;&#9;&#9;&#9;&#9;c-0.9-1.8-2.7-3.1-4.9-3.1c-3,0-5.4,2.4-5.4,5.4c0,0.4,0,0.7,0.1,1c-2.4,0.1-4.3,2-4.3,4.4c0,0.1,0,0.1,0,0.2c0,0.1,0,0.2,0,0.3&#10;&#9;&#9;&#9;&#9;c0,2.2,1,3.9,2.2,3.9h2.2c0,0,0,0,0,0s0,0,0,0h19.1c0,0,0,0,0,0h0h2.2c1.2,0,2.2-1.7,2.2-3.9c0-0.1,0-0.2,0-0.3&#10;&#9;&#9;&#9;&#9;C602.8,140.8,602.8,140.7,602.8,140.7z" style="fill: rgb(255, 255, 255);"/>
			<path class="st0" d="M600.6,146H577c-1.8,0-3.1-2.1-3.1-4.8c0-0.1,0-0.3,0-0.4c0,0,0-0.1,0-0.1c0-2.6,1.8-4.7,4.2-5.2&#10;&#9;&#9;&#9;&#9;c0-0.1,0-0.2,0-0.2c0-3.5,2.9-6.4,6.4-6.4c2.1,0,4,1.1,5.2,2.7c0.9-0.4,1.8-0.7,2.8-0.7c2.8,0,5.2,1.8,6,4.4&#10;&#9;&#9;&#9;&#9;c2.8,0.1,5.1,2.5,5.1,5.3c0,0.1,0,0.1,0,0.2c0,0.1,0,0.2,0,0.3C603.7,143.9,602.3,146,600.6,146z M584.5,130.7&#10;&#9;&#9;&#9;&#9;c-2.5,0-4.5,2-4.5,4.5c0,0.3,0,0.6,0.1,0.9l0.2,1.1l-1.1,0c-1.9,0.1-3.4,1.6-3.4,3.5l0,0.1c0,0.2,0,0.3,0,0.4c0,1.8,0.8,3,1.3,3&#10;&#9;&#9;&#9;&#9;h23.5c0.5,0,1.3-1.2,1.3-3c0-0.1,0-0.2,0-0.3l0-0.1l0-0.1c0-2-1.6-3.6-3.5-3.6c-0.1,0-0.2,0-0.4,0l-0.8,0.1l-0.2-0.8&#10;&#9;&#9;&#9;&#9;c-0.4-2.1-2.3-3.7-4.4-3.7c-0.9,0-1.9,0.3-2.6,0.8l-0.9,0.6l-0.5-1C587.8,131.7,586.2,130.7,584.5,130.7z" style="fill: rgb(49, 63, 91);"/>
		</g><path d="M 593.900024 138.199997 A 3 3 0 0 1 590.900024 141.199997 A 3 3 0 0 1 587.900024 138.199997 A 3 3 0 0 1 590.900024 135.199997 A 3 3 0 0 1 593.900024 138.199997 Z" class="st2" style="fill: rgb(140, 212, 234);" transform="matrix(1, 0, 0, 1, 0, -7.275957614183426e-12)"/><g transform="matrix(1, 0, 0, 1, 0, -7.275957614183426e-12)">
			<path class="st1" d="M350.1,237.8c-2.4-3.6-6.5-6.1-11.1-6.1c-4.5,0-8.4,2.2-10.8,5.6c-1.6-2.5-4.3-4.1-7.5-4.1&#10;&#9;&#9;&#9;&#9;c-1.7,0-3.3,0.5-4.6,1.3c-1-3.8-4.5-6.5-8.5-6.5c-0.5,0-1,0-1.4,0.1c-1.9-5.1-6.7-8.7-12.4-8.7c-5.7,0-10.6,3.6-12.4,8.7&#10;&#9;&#9;&#9;&#9;c-0.5-0.1-1-0.1-1.5-0.1c-4.3,0-7.9,3.1-8.7,7.2c-1.5-1.2-3.5-2-5.6-2c-3.5,0-6.5,2-7.9,4.9c-1.1-0.3-2.2-0.5-3.4-0.5&#10;&#9;&#9;&#9;&#9;c-7.3,0-13.3,5.9-13.3,13.3c0,0.6,0.1,1.2,0.1,1.8c0,0.1,0,0.3,0,0.4c0,6.1,3.4,11.1,7.5,11.1h96.4c0.5,0,1-0.1,1.5-0.2&#10;&#9;&#9;&#9;&#9;c0.8,0.1,1.6,0.2,2.4,0.2c7.3,0,13.3-5.9,13.3-13.3C361.9,244.1,356.8,238.5,350.1,237.8z" style="fill: rgb(255, 255, 255);"/>
			<path class="st0" d="M348.7,265.1c-0.8,0-1.5-0.1-2.3-0.2c-0.5,0.1-1,0.2-1.5,0.2h-96.4c-4.6,0-8.4-5.4-8.4-12c0-0.1,0-0.2,0-0.3&#10;&#9;&#9;&#9;&#9;l0-0.1c-0.1-0.7-0.1-1.2-0.1-1.8c0-7.8,6.4-14.2,14.2-14.2c1,0,2,0.1,3,0.3c1.8-3,4.9-4.8,8.4-4.8c1.8,0,3.5,0.5,5,1.4&#10;&#9;&#9;&#9;&#9;c1.3-3.9,5-6.6,9.3-6.6c0.3,0,0.6,0,0.9,0c2.2-5.2,7.4-8.6,13-8.6c5.7,0,10.8,3.4,13,8.6c0.3,0,0.6,0,0.8,0c4,0,7.6,2.5,9.1,6.1&#10;&#9;&#9;&#9;&#9;c1.3-0.6,2.7-0.9,4.1-0.9c2.9,0,5.7,1.3,7.5,3.5c2.7-3.2,6.6-5,10.8-5c4.7,0,9,2.3,11.7,6.1c7,1,12.2,6.9,12.2,14&#10;&#9;&#9;&#9;&#9;C362.8,258.7,356.5,265.1,348.7,265.1z M346.2,263l0.2,0c0.8,0.1,1.5,0.2,2.2,0.2c6.8,0,12.3-5.5,12.3-12.3&#10;&#9;&#9;&#9;&#9;c0-6.3-4.7-11.6-11-12.3l-0.4,0l-0.2-0.4c-2.3-3.5-6.2-5.6-10.4-5.6c-4,0-7.8,2-10.1,5.2l-0.8,1.1l-0.7-1.2&#10;&#9;&#9;&#9;&#9;c-1.5-2.3-4-3.7-6.7-3.7c-1.5,0-2.9,0.4-4.1,1.2l-1,0.6l-0.3-1.2c-0.9-3.4-4.1-5.8-7.7-5.8c-0.4,0-0.8,0-1.3,0.1l-0.7,0.1&#10;&#9;&#9;&#9;&#9;l-0.3-0.7c-1.8-4.9-6.4-8.1-11.6-8.1c-5.2,0-9.8,3.3-11.6,8.1l-0.3,0.7L281,229c-0.5-0.1-0.9-0.1-1.3-0.1c-3.8,0-7.1,2.7-7.8,6.4&#10;&#9;&#9;&#9;&#9;l-0.3,1.5l-1.2-1c-1.4-1.2-3.2-1.8-5-1.8c-3,0-5.8,1.7-7.1,4.4l-0.3,0.7l-0.7-0.2c-1.1-0.3-2.1-0.4-3.2-0.4&#10;&#9;&#9;&#9;&#9;c-6.8,0-12.3,5.5-12.3,12.3c0,0.5,0,1,0.1,1.6l0,0.1l0,0.5c0,5.6,2.9,10.1,6.6,10.1h96.4c0.4,0,0.8-0.1,1.2-0.2L346.2,263z" style="fill: rgb(49, 63, 91);"/>
		</g><path d="M 348.299994 249.5 A 9.4 9.4 0 0 1 338.899994 258.9 A 9.4 9.4 0 0 1 329.499994 249.5 A 9.4 9.4 0 0 1 338.899994 240.1 A 9.4 9.4 0 0 1 348.299994 249.5 Z" class="st2" style="fill: rgb(140, 212, 234);" transform="matrix(1, 0, 0, 1, 0, -7.275957614183426e-12)"/><g transform="matrix(1, 0, 0, 1, 0, -7.275957614183426e-12)">
			<path class="st1" d="M324.9,353.7c-1.6-2.5-4.5-4.2-7.7-4.2c-3.1,0-5.8,1.5-7.5,3.9c-1.1-1.7-3-2.9-5.2-2.9&#10;&#9;&#9;&#9;&#9;c-1.2,0-2.3,0.3-3.2,0.9c-0.7-2.6-3.1-4.5-5.9-4.5c-0.3,0-0.7,0-1,0.1c-1.3-3.5-4.7-6-8.6-6c-4,0-7.3,2.5-8.6,6&#10;&#9;&#9;&#9;&#9;c-0.3-0.1-0.7-0.1-1-0.1c-3,0-5.5,2.1-6,5c-1.1-0.9-2.4-1.4-3.9-1.4c-2.4,0-4.5,1.4-5.5,3.4c-0.8-0.2-1.5-0.3-2.4-0.3&#10;&#9;&#9;&#9;&#9;c-5.1,0-9.2,4.1-9.2,9.2c0,0.4,0,0.8,0.1,1.2c0,0.1,0,0.2,0,0.3c0,4.2,2.3,7.7,5.2,7.7h66.8c0.4,0,0.7-0.1,1-0.2&#10;&#9;&#9;&#9;&#9;c0.5,0.1,1.1,0.2,1.6,0.2c5.1,0,9.2-4.1,9.2-9.2C333,358.1,329.5,354.2,324.9,353.7z" style="fill: rgb(255, 255, 255);"/>
			<path class="st0" d="M323.8,372.9c-0.5,0-1,0-1.6-0.1c-0.4,0.1-0.7,0.1-1.1,0.1h-66.8c-3.4,0-6.1-3.8-6.1-8.6l0-0.3&#10;&#9;&#9;&#9;&#9;c-0.1-0.5-0.1-0.9-0.1-1.3c0-5.6,4.5-10.1,10.1-10.1c0.6,0,1.3,0.1,1.9,0.2c1.3-2,3.5-3.3,6-3.3c1.2,0,2.3,0.3,3.3,0.8&#10;&#9;&#9;&#9;&#9;c1.1-2.6,3.6-4.5,6.6-4.5c0.1,0,0.3,0,0.5,0c1.6-3.6,5.2-6,9.2-6c4,0,7.6,2.4,9.2,6c3-0.2,5.7,1.5,6.8,4.1&#10;&#9;&#9;&#9;&#9;c0.9-0.4,1.8-0.5,2.7-0.5c2,0,3.9,0.8,5.2,2.3c1.9-2.1,4.6-3.3,7.5-3.3c3.3,0,6.3,1.6,8.2,4.3c4.9,0.8,8.5,5,8.5,10&#10;&#9;&#9;&#9;&#9;C333.9,368.4,329.4,372.9,323.8,372.9z M322.2,370.9l0.2,0c0.5,0.1,1,0.1,1.5,0.1c4.6,0,8.3-3.7,8.3-8.3c0-4.2-3.2-7.7-7.3-8.2&#10;&#9;&#9;&#9;&#9;l-0.4,0l-0.2-0.4c-1.5-2.4-4.1-3.8-6.9-3.8c-2.7,0-5.2,1.3-6.8,3.5l-0.8,1.1l-0.7-1.2c-1-1.5-2.6-2.4-4.4-2.4&#10;&#9;&#9;&#9;&#9;c-1,0-1.9,0.3-2.7,0.8l-1,0.6l-0.3-1.2c-0.6-2.3-2.7-3.8-5-3.8c-0.3,0-0.5,0-0.8,0.1l-0.7,0.1l-0.3-0.7c-1.2-3.3-4.3-5.4-7.8-5.4&#10;&#9;&#9;&#9;&#9;c-3.5,0-6.6,2.2-7.8,5.4l-0.3,0.7l-0.7-0.1c-0.3-0.1-0.6-0.1-0.9-0.1c-2.5,0-4.7,1.8-5.1,4.2l-0.3,1.5l-1.2-1&#10;&#9;&#9;&#9;&#9;c-0.9-0.8-2.1-1.2-3.3-1.2c-2,0-3.8,1.1-4.7,2.9l-0.3,0.7l-0.7-0.2c-0.7-0.2-1.4-0.3-2.1-0.3c-4.6,0-8.3,3.7-8.3,8.3&#10;&#9;&#9;&#9;&#9;c0,0.3,0,0.7,0.1,1.1l0,0.1l0,0.4c0,3.7,2,6.8,4.3,6.8h66.8c0.3,0,0.5,0,0.8-0.1L322.2,370.9z" style="fill: rgb(49, 63, 91);"/>
		</g><path d="M 294.100012 357.399994 A 9.4 9.4 0 0 1 284.700012 366.799994 A 9.4 9.4 0 0 1 275.300013 357.399994 A 9.4 9.4 0 0 1 284.700012 347.999994 A 9.4 9.4 0 0 1 294.100012 357.399994 Z" class="st2" style="fill: rgb(140, 212, 234);" transform="matrix(1, 0, 0, 1, 0, -7.275957614183426e-12)"/><g transform="matrix(1, 0, 0, 1, 0, -7.275957614183426e-12)">
			<path class="st1" d="M631.7,258.9c-3.4-5.2-9.2-8.6-15.8-8.6c-6.4,0-12,3.2-15.4,8c-2.2-3.5-6.2-5.9-10.7-5.9&#10;&#9;&#9;&#9;&#9;c-2.4,0-4.7,0.7-6.6,1.9c-1.5-5.3-6.4-9.3-12.2-9.3c-0.7,0-1.4,0.1-2,0.2c-2.6-7.2-9.6-12.4-17.7-12.4c-8.2,0-15.1,5.2-17.7,12.4&#10;&#9;&#9;&#9;&#9;c-0.7-0.1-1.4-0.2-2.1-0.2c-6.2,0-11.3,4.4-12.4,10.2c-2.2-1.8-4.9-2.8-8-2.8c-5,0-9.3,2.9-11.3,7c-1.6-0.4-3.2-0.7-4.9-0.7&#10;&#9;&#9;&#9;&#9;c-10.4,0-18.9,8.5-18.9,18.9c0,0.9,0.1,1.7,0.2,2.5c0,0.2,0,0.4,0,0.6c0,8.7,4.8,15.8,10.7,15.8h137.3c0.7,0,1.4-0.1,2.1-0.3&#10;&#9;&#9;&#9;&#9;c1.1,0.2,2.2,0.3,3.4,0.3c10.4,0,18.9-8.5,18.9-18.9C648.5,268,641.1,260,631.7,258.9z" style="fill: rgb(255, 255, 255);"/>
			<path class="st0" d="M629.6,297.5c-1.1,0-2.2-0.1-3.3-0.3c-0.7,0.2-1.5,0.3-2.2,0.3H486.8c-6.4,0-11.6-7.5-11.6-16.7&#10;&#9;&#9;&#9;&#9;c0-0.1,0-0.3,0-0.4l0-0.2c-0.1-1-0.2-1.8-0.2-2.5c0-10.9,8.9-19.8,19.8-19.8c1.4,0,2.9,0.2,4.4,0.5c2.4-4.3,6.9-6.9,11.8-6.9&#10;&#9;&#9;&#9;&#9;c2.6,0,5.2,0.8,7.4,2.2c1.7-5.6,7-9.6,13-9.6c0.5,0,1,0,1.5,0.1c3-7.4,10.3-12.3,18.3-12.3c8,0,15.3,4.9,18.3,12.3&#10;&#9;&#9;&#9;&#9;c0.5-0.1,1-0.1,1.5-0.1c5.7,0,10.8,3.6,12.7,8.8c1.9-0.9,4-1.4,6.1-1.4c4.2,0,8.1,1.9,10.7,5.3c3.7-4.6,9.4-7.4,15.4-7.4&#10;&#9;&#9;&#9;&#9;c6.6,0,12.7,3.2,16.4,8.7c9.8,1.3,17.1,9.7,17.1,19.6C649.4,288.6,640.5,297.5,629.6,297.5z M626.2,295.3l0.2,0&#10;&#9;&#9;&#9;&#9;c1.1,0.2,2.2,0.3,3.2,0.3c9.9,0,18-8.1,18-18c0-9.2-6.9-16.8-15.9-17.8l-0.4,0l-0.2-0.4c-3.3-5.1-9-8.2-15.1-8.2&#10;&#9;&#9;&#9;&#9;c-5.8,0-11.3,2.9-14.7,7.6l-0.8,1.1l-0.7-1.2c-2.2-3.4-5.9-5.5-9.9-5.5c-2.1,0-4.3,0.6-6.1,1.7l-1,0.6l-0.3-1.2&#10;&#9;&#9;&#9;&#9;c-1.4-5.1-6-8.6-11.3-8.6c-0.6,0-1.2,0.1-1.9,0.2l-0.7,0.1l-0.3-0.7c-2.6-7.1-9.4-11.8-16.9-11.8c-7.5,0-14.3,4.7-16.9,11.8&#10;&#9;&#9;&#9;&#9;l-0.3,0.7l-0.8-0.1c-0.7-0.1-1.4-0.2-2-0.2c-5.6,0-10.4,4-11.5,9.5l-0.3,1.5l-1.2-1c-2.1-1.7-4.7-2.6-7.4-2.6&#10;&#9;&#9;&#9;&#9;c-4.5,0-8.5,2.5-10.5,6.5l-0.3,0.7l-0.7-0.2c-1.6-0.4-3.1-0.6-4.6-0.6c-9.9,0-18,8.1-18,18c0,0.7,0.1,1.5,0.2,2.4l0,0.1l0,0.3&#10;&#9;&#9;&#9;&#9;c0,0.1,0,0.2,0,0.3c0,8.2,4.4,14.8,9.8,14.8h137.3c0.6,0,1.3-0.1,1.9-0.3L626.2,295.3z" style="fill: rgb(49, 63, 91);"/>
		</g><path d="M 508.000012 275.700012 A 9.8 9.8 0 0 1 498.200012 285.500012 A 9.8 9.8 0 0 1 488.400012 275.700012 A 9.8 9.8 0 0 1 498.200012 265.900012 A 9.8 9.8 0 0 1 508.000012 275.700012 Z" class="st2" style="fill: rgb(140, 212, 234);" transform="matrix(1, 0, 0, 1, 0, -7.275957614183426e-12)"/><g transform="matrix(1, 0, 0, 1, 0, -7.275957614183426e-12)">
			<g>
				<path d="M 457.099995 167.199997 A 37.200001 37.200001 0 0 1 419.899994 204.399998 A 37.200001 37.200001 0 0 1 382.699993 167.199997 A 37.200001 37.200001 0 0 1 419.899994 129.999996 A 37.200001 37.200001 0 0 1 457.099995 167.199997 Z" class="st1" style="fill: rgb(255, 255, 255);"/>
				<path class="st0" d="M419.9,205.4c-21.1,0-38.2-17.1-38.2-38.2c0-21.1,17.1-38.2,38.2-38.2c21.1,0,38.2,17.1,38.2,38.2&#10;&#9;&#9;&#9;&#9;&#9;C458.1,188.2,441,205.4,419.9,205.4z M419.9,131c-20,0-36.2,16.2-36.2,36.2c0,20,16.2,36.2,36.2,36.2c20,0,36.2-16.2,36.2-36.2&#10;&#9;&#9;&#9;&#9;&#9;C456.1,147.2,439.9,131,419.9,131z" style="fill: rgb(49, 63, 91);"/>
			</g>
			<path d="M 418.899994 83 H 420.899994 V 124.5 H 418.899994 V 83 Z" class="st0" style="fill: rgb(49, 63, 91);"/>
			<path d="M 418.899994 210.5 H 420.899994 V 252 H 418.899994 V 210.5 Z" class="st0" style="fill: rgb(49, 63, 91);"/>
			<path d="M 335.399994 166.5 H 376.899994 V 168.5 H 335.399994 V 166.5 Z" class="st0" style="fill: rgb(49, 63, 91);"/>
			<path d="M 463 166.5 H 504.5 V 168.5 H 463 V 166.5 Z" class="st0" style="fill: rgb(49, 63, 91);"/>
			
				<path d="M 350.700012 125 H 392.200012 V 127 H 350.700012 V 125 Z" transform="matrix(0.7597 0.6502 -0.6502 0.7597 171.2059 -211.2672)" class="st0" style="fill: rgb(49, 63, 91);"/>
			
				<path d="M 447.700012 208 H 489.200012 V 210 H 447.700012 V 208 Z" transform="matrix(0.7597 0.6502 -0.6502 0.7597 248.4264 -254.3563)" class="st0" style="fill: rgb(49, 63, 91);"/>
			
				<path d="M 463.399994 101 H 465.399994 V 142.5 H 463.399994 V 101 Z" transform="matrix(0.717 0.6971 -0.6971 0.717 216.338 -289.2763)" class="st0" style="fill: rgb(49, 63, 91);"/>
			
				<path d="M 442.899994 99.199997 H 444.899994 V 125.899998 H 442.899994 V 99.199997 Z" transform="matrix(0.8925 0.4511 -0.4511 0.8925 98.496 -188.1498)" class="st0" style="fill: rgb(49, 63, 91);"/>
			
				<path d="M 381.600006 111.5 H 408.300007 V 113.5 H 381.600006 V 111.5 Z" transform="matrix(0.4513 0.8924 -0.8924 0.4513 317.1396 -290.6892)" class="st0" style="fill: rgb(49, 63, 91);"/>
			
				<path d="M 430.600006 221.5 H 457.300007 V 223.5 H 430.600006 V 221.5 Z" transform="matrix(0.4513 0.8924 -0.8924 0.4513 442.1255 -274.0778)" class="st0" style="fill: rgb(49, 63, 91);"/>
			
				<path d="M 393.899994 209.100006 H 395.899994 V 235.800007 H 393.899994 V 209.100006 Z" transform="matrix(0.8925 0.4511 -0.4511 0.8925 142.8205 -154.2335)" class="st0" style="fill: rgb(49, 63, 91);"/>
			
				<path d="M 473.899994 132.199997 H 475.899994 V 158.899998 H 473.899994 V 132.199997 Z" transform="matrix(0.4513 0.8924 -0.8924 0.4513 390.4497 -343.9085)" class="st0" style="fill: rgb(49, 63, 91);"/>
			
				<path d="M 461.5 188.5 H 488.200001 V 190.5 H 461.5 V 188.5 Z" transform="matrix(0.8924 0.4513 -0.4513 0.8924 136.6131 -193.9106)" class="st0" style="fill: rgb(49, 63, 91);"/>
			
				<path d="M 350.5 144.5 H 377.200001 V 146.5 H 350.5 V 144.5 Z" transform="matrix(0.8924 0.4513 -0.4513 0.8924 104.8372 -148.5381)" class="st0" style="fill: rgb(49, 63, 91);"/>
			
				<path d="M 362.799988 176.100006 H 364.799988 V 202.800007 H 362.799988 V 176.100006 Z" transform="matrix(0.4513 0.8924 -0.8924 0.4513 368.7405 -220.7276)" class="st0" style="fill: rgb(49, 63, 91);"/>
			
				<path d="M 374.5 192.5 H 376.5 V 234 H 374.5 V 192.5 Z" transform="matrix(0.717 0.6971 -0.6971 0.717 254.8988 -201.381)" class="st0" style="fill: rgb(49, 63, 91);"/>
		</g><path d="M 446.899994 166.5 A 27 27 0 0 1 419.899994 193.5 A 27 27 0 0 1 392.899994 166.5 A 27 27 0 0 1 419.899994 139.5 A 27 27 0 0 1 446.899994 166.5 Z" class="st3" style="fill: rgb(255, 222, 23);" transform="matrix(1, 0, 0, 1, 0, -7.275957614183426e-12)"/><g transform="matrix(1, 0, 0, 1, 0, -7.275957614183426e-12)">
			<path class="st1" d="M612.1,285.3c-2.4-3.6-6.5-6.1-11.1-6.1c-4.5,0-8.4,2.2-10.8,5.6c-1.6-2.5-4.3-4.1-7.5-4.1&#10;&#9;&#9;&#9;&#9;c-1.7,0-3.3,0.5-4.6,1.3c-1-3.8-4.5-6.5-8.5-6.5c-0.5,0-1,0-1.4,0.1c-1.9-5.1-6.7-8.7-12.4-8.7c-5.7,0-10.6,3.6-12.4,8.7&#10;&#9;&#9;&#9;&#9;c-0.5-0.1-1-0.1-1.5-0.1c-4.3,0-7.9,3.1-8.7,7.2c-1.5-1.2-3.5-2-5.6-2c-3.5,0-6.5,2-7.9,4.9c-1.1-0.3-2.2-0.5-3.4-0.5&#10;&#9;&#9;&#9;&#9;c-7.3,0-13.3,5.9-13.3,13.3c0,0.6,0.1,1.2,0.1,1.8c0,0.1,0,0.3,0,0.4c0,6.1,3.4,11.1,7.5,11.1h96.4c0.5,0,1-0.1,1.5-0.2&#10;&#9;&#9;&#9;&#9;c0.8,0.1,1.6,0.2,2.4,0.2c7.3,0,13.3-5.9,13.3-13.3C623.9,291.6,618.8,286,612.1,285.3z" style="fill: rgb(255, 255, 255);"/>
			<path class="st0" d="M610.6,312.6c-0.8,0-1.5-0.1-2.3-0.2c-0.5,0.1-1,0.2-1.5,0.2h-96.4c-4.6,0-8.4-5.4-8.4-12c0-0.1,0-0.2,0-0.3&#10;&#9;&#9;&#9;&#9;l0-0.1c-0.1-0.7-0.1-1.2-0.1-1.8c0-7.8,6.4-14.2,14.2-14.2c1,0,2,0.1,3,0.3c1.8-3,4.9-4.8,8.4-4.8c1.8,0,3.5,0.5,5,1.4&#10;&#9;&#9;&#9;&#9;c1.3-3.9,5-6.6,9.3-6.6c0.3,0,0.6,0,0.9,0c2.2-5.2,7.4-8.6,13-8.6c5.7,0,10.8,3.4,13,8.6c0.3,0,0.6,0,0.8,0c4,0,7.6,2.5,9.1,6.1&#10;&#9;&#9;&#9;&#9;c1.3-0.6,2.7-0.9,4.1-0.9c2.9,0,5.7,1.3,7.5,3.5c2.7-3.2,6.6-5,10.8-5c4.7,0,9,2.3,11.7,6.1c7,1,12.2,6.9,12.2,14&#10;&#9;&#9;&#9;&#9;C624.8,306.3,618.5,312.6,610.6,312.6z M608.2,310.6l0.2,0c0.8,0.1,1.5,0.2,2.2,0.2c6.8,0,12.3-5.5,12.3-12.3&#10;&#9;&#9;&#9;&#9;c0-6.3-4.7-11.6-11-12.3l-0.4,0l-0.2-0.4c-2.3-3.5-6.2-5.6-10.4-5.6c-4,0-7.8,2-10.1,5.2l-0.8,1.1l-0.7-1.2&#10;&#9;&#9;&#9;&#9;c-1.5-2.3-4-3.7-6.7-3.7c-1.5,0-2.9,0.4-4.1,1.2l-1,0.6l-0.3-1.2c-0.9-3.4-4.1-5.8-7.7-5.8c-0.4,0-0.8,0-1.3,0.1l-0.7,0.1&#10;&#9;&#9;&#9;&#9;l-0.3-0.7c-1.8-4.9-6.4-8.1-11.6-8.1c-5.2,0-9.8,3.3-11.6,8.1l-0.3,0.7l-0.8-0.1c-0.5-0.1-0.9-0.1-1.3-0.1&#10;&#9;&#9;&#9;&#9;c-3.8,0-7.1,2.7-7.8,6.4l-0.3,1.5l-1.2-1c-1.4-1.2-3.2-1.8-5-1.8c-3,0-5.8,1.7-7.1,4.4l-0.3,0.7l-0.7-0.2&#10;&#9;&#9;&#9;&#9;c-1.1-0.3-2.1-0.4-3.2-0.4c-6.8,0-12.3,5.5-12.3,12.3c0,0.5,0,1,0.1,1.6l0,0.1l0,0.5c0,5.6,2.9,10.1,6.6,10.1h96.4&#10;&#9;&#9;&#9;&#9;c0.4,0,0.8-0.1,1.2-0.2L608.2,310.6z" style="fill: rgb(49, 63, 91);"/>
		</g><path d="M 614.899976 298.700012 A 9.3 9.3 0 0 1 605.599976 308.000012 A 9.3 9.3 0 0 1 596.299975 298.700012 A 9.3 9.3 0 0 1 605.599976 289.400012 A 9.3 9.3 0 0 1 614.899976 298.700012 Z" class="st2" style="fill: rgb(140, 212, 234);" transform="matrix(1, 0, 0, 1, 0, -7.275957614183426e-12)"/><g transform="matrix(1, 0, 0, 1, 0, -7.275957614183426e-12)">
			<path class="st1" d="M533.6,300.8c-2.4-3.6-6.5-6.1-11.1-6.1c-4.5,0-8.4,2.2-10.8,5.6c-1.6-2.5-4.3-4.1-7.5-4.1&#10;&#9;&#9;&#9;&#9;c-1.7,0-3.3,0.5-4.6,1.3c-1-3.8-4.5-6.5-8.5-6.5c-0.5,0-1,0-1.4,0.1c-1.9-5.1-6.7-8.7-12.4-8.7c-5.7,0-10.6,3.6-12.4,8.7&#10;&#9;&#9;&#9;&#9;c-0.5-0.1-1-0.1-1.5-0.1c-3.5,0-6.6,2.1-8,5c-2.4-2.8-6-4.6-10.1-4.6c-4.5,0-8.4,2.2-10.8,5.6c-1.6-2.5-4.3-4.1-7.5-4.1&#10;&#9;&#9;&#9;&#9;c-1.7,0-3.3,0.5-4.6,1.3c-1-3.8-4.5-6.5-8.5-6.5c-0.5,0-1,0-1.4,0.1c-1.9-5.1-6.7-8.7-12.4-8.7c-5.7,0-10.6,3.6-12.4,8.7&#10;&#9;&#9;&#9;&#9;c-0.5-0.1-1-0.1-1.5-0.1c-4.3,0-7.9,3.1-8.7,7.2c-1.5-1.2-3.5-2-5.6-2c-3.5,0-6.5,2-7.9,4.9c-1.1-0.3-2.2-0.5-3.4-0.5&#10;&#9;&#9;&#9;&#9;c-7.3,0-13.3,5.9-13.3,13.3c0,0.6,0.1,1.2,0.1,1.8c0,0.1,0,0.3,0,0.4c0,6.1,3.4,11.1,7.5,11.1c0,0,176.8,0.3,177.6,0.3&#10;&#9;&#9;&#9;&#9;c7.3,0,13.3-2.9,13.3-10.3C545.3,307.2,540.2,301.6,533.6,300.8z" style="fill: rgb(255, 255, 255);"/>
			<path class="st0" d="M532.1,325.2c-0.8,0-175.9-0.3-177.6-0.3c-4.6,0-8.4-5.4-8.4-12c0-0.1,0-0.2,0-0.3l0-0.1&#10;&#9;&#9;&#9;&#9;c-0.1-0.7-0.1-1.2-0.1-1.8c0-7.8,6.4-14.2,14.2-14.2c1,0,2,0.1,3,0.3c1.8-3,4.9-4.8,8.4-4.8c1.8,0,3.5,0.5,5,1.4&#10;&#9;&#9;&#9;&#9;c1.3-3.9,5-6.6,9.3-6.6c0.3,0,0.6,0,0.9,0c2.2-5.2,7.4-8.6,13-8.6c5.7,0,10.8,3.4,13,8.6c0.3,0,0.6,0,0.8,0c4,0,7.6,2.5,9.1,6.1&#10;&#9;&#9;&#9;&#9;c1.3-0.6,2.7-0.9,4.1-0.9c2.9,0,5.7,1.3,7.5,3.5c2.7-3.2,6.6-5,10.8-5c3.7,0,7.2,1.5,9.9,4c1.8-2.7,4.9-4.4,8.2-4.4&#10;&#9;&#9;&#9;&#9;c0.3,0,0.6,0,0.9,0c2.2-5.2,7.4-8.6,13-8.6c5.7,0,10.8,3.4,13,8.6c0.3,0,0.6,0,0.8,0c4,0,7.6,2.5,9.1,6.1&#10;&#9;&#9;&#9;&#9;c1.3-0.6,2.7-0.9,4.1-0.9c2.9,0,5.7,1.3,7.5,3.5c2.7-3.2,6.6-5,10.8-5c4.7,0,9,2.3,11.7,6.1c7,1,12.2,6.9,12.2,14&#10;&#9;&#9;&#9;&#9;C546.3,321,541,325.2,532.1,325.2z M360.1,298.3c-6.8,0-12.3,5.5-12.3,12.3c0,0.5,0,1,0.1,1.6l0,0.1l0,0.5c0,5.6,3,10.1,6.6,10.1&#10;&#9;&#9;&#9;&#9;c1.8,0,176.8,0.3,177.6,0.3c4.6,0,12.3-1.2,12.3-9.3c0-6.3-4.7-11.6-11-12.3l-0.4,0l-0.2-0.4c-2.3-3.5-6.2-5.6-10.4-5.6&#10;&#9;&#9;&#9;&#9;c-4,0-7.8,2-10.1,5.2l-0.8,1.1l-0.7-1.2c-1.5-2.3-4-3.7-6.7-3.7c-1.5,0-2.9,0.4-4.1,1.2l-1,0.6l-0.3-1.2&#10;&#9;&#9;&#9;&#9;c-0.9-3.4-4.1-5.8-7.7-5.8c-0.4,0-0.8,0-1.3,0.1l-0.7,0.1l-0.3-0.7c-1.8-4.9-6.4-8.1-11.6-8.1c-5.2,0-9.8,3.3-11.6,8.1l-0.3,0.7&#10;&#9;&#9;&#9;&#9;l-0.8-0.1c-0.5-0.1-0.9-0.1-1.3-0.1c-3,0-5.9,1.8-7.2,4.5l-0.6,1.3l-0.9-1.1c-2.4-2.8-5.8-4.3-9.4-4.3c-4,0-7.8,2-10.1,5.2&#10;&#9;&#9;&#9;&#9;l-0.8,1.1l-0.7-1.2c-1.5-2.3-4-3.7-6.7-3.7c-1.5,0-2.9,0.4-4.1,1.2l-1,0.6l-0.3-1.2c-0.9-3.4-4.1-5.8-7.7-5.8&#10;&#9;&#9;&#9;&#9;c-0.4,0-0.8,0-1.3,0.1l-0.7,0.1l-0.3-0.7c-1.8-4.9-6.4-8.1-11.6-8.1c-5.2,0-9.8,3.3-11.6,8.1l-0.3,0.7l-0.8-0.1&#10;&#9;&#9;&#9;&#9;c-0.5-0.1-0.9-0.1-1.3-0.1c-3.8,0-7.1,2.7-7.8,6.4l-0.3,1.5l-1.2-1c-1.4-1.2-3.2-1.8-5-1.8c-3,0-5.8,1.7-7.1,4.4l-0.3,0.7&#10;&#9;&#9;&#9;&#9;l-0.7-0.2C362.2,298.4,361.1,298.3,360.1,298.3z" style="fill: rgb(49, 63, 91);"/>
		</g><path d="M 373.8 310.799988 A 9.3 9.3 0 0 1 364.5 320.099988 A 9.3 9.3 0 0 1 355.2 310.799988 A 9.3 9.3 0 0 1 364.5 301.499988 A 9.3 9.3 0 0 1 373.8 310.799988 Z" class="st2" style="fill: rgb(140, 212, 234);" transform="matrix(1, 0, 0, 1, 0, -7.275957614183426e-12)"/><path d="M 530.599988 310.799988 A 9.3 9.3 0 0 1 521.299988 320.099988 A 9.3 9.3 0 0 1 511.999988 310.799988 A 9.3 9.3 0 0 1 521.299988 301.499988 A 9.3 9.3 0 0 1 530.599988 310.799988 Z" class="st2" style="fill: rgb(140, 212, 234);" transform="matrix(1, 0, 0, 1, 0, -7.275957614183426e-12)"/>
</svg>