<?xml version="1.0" encoding="utf-8"?>
<!-- Generator: Adobe Illustrator 16.0.0, SVG Export Plug-In . SVG Version: 6.00 Build 0)  -->
<!DOCTYPE svg PUBLIC "-//W3C//DTD SVG 1.1//EN" "http://www.w3.org/Graphics/SVG/1.1/DTD/svg11.dtd">
<svg version="1.1" id="Layer_1" xmlns="http://www.w3.org/2000/svg" xmlns:xlink="http://www.w3.org/1999/xlink" x="0px" y="0px"
	 width="1400px" height="980px" viewBox="0 0 1400 980" enable-background="new 0 0 1400 980" xml:space="preserve">
<g>
	<g>
		<g>
			<rect fill="#FFFFFF" width="1400" height="980"/>
		</g>
	</g>
	<g>
		<rect x="207.1" y="786" fill="#F1F2F2" width="182.4" height="94.3"/>
		<path d="M389.5,882.4H207.1c-1.2,0-2.2-1-2.2-2.2V786c0-1.2,1-2.2,2.2-2.2h182.4c1.2,0,2.2,1,2.2,2.2v94.3
			C391.7,881.5,390.7,882.4,389.5,882.4z M209.3,878.1h178v-89.9h-178V878.1z"/>
	</g>
	<g>
		<rect x="207.1" y="623.2" fill="#F1F2F2" width="182.4" height="94.3"/>
		<path d="M389.5,719.6H207.1c-1.2,0-2.2-1-2.2-2.2v-94.3c0-1.2,1-2.2,2.2-2.2h182.4c1.2,0,2.2,1,2.2,2.2v94.3
			C391.7,718.7,390.7,719.6,389.5,719.6z M209.3,715.3h178v-89.9h-178V715.3z"/>
	</g>
	<g>
		<rect x="960.4" y="108.9" fill="#F1F2F2" width="220.7" height="56.6"/>
		<path d="M1181.1,167.6H960.4c-1.2,0-2.2-1-2.2-2.2v-56.6c0-1.2,1-2.2,2.2-2.2h220.7c1.2,0,2.2,1,2.2,2.2v56.6
			C1183.3,166.7,1182.4,167.6,1181.1,167.6z M962.6,163.3H1179v-52.2H962.6V163.3z"/>
	</g>
	<g>
		<rect x="603.5" y="86.3" fill="#F1F2F2" width="223.2" height="514.2"/>
	</g>
	<g>
		<path d="M901.5,609.4H533c-1.2,0-2.2-1-2.2-2.2V397.7c0-9.8,8-17.9,17.9-17.9h23c1.2,0,2.2,1,2.2,2.2s-1,2.2-2.2,2.2h-23
			c-7.4,0-13.5,6.1-13.5,13.5V605h364.1V397.7c0-7.4-6.1-13.5-13.5-13.5h-21.7c-1.2,0-2.2-1-2.2-2.2s1-2.2,2.2-2.2h21.7
			c9.8,0,17.9,8,17.9,17.9v209.5C903.7,608.4,902.7,609.4,901.5,609.4z"/>
	</g>
	<g>
		<rect x="533" y="607.2" fill="#54CFFF" width="368.5" height="47.3"/>
		<path d="M901.5,656.7H533c-1.2,0-2.2-1-2.2-2.2v-47.3c0-1.2,1-2.2,2.2-2.2h368.5c1.2,0,2.2,1,2.2,2.2v47.3
			C903.7,655.7,902.7,656.7,901.5,656.7z M535.2,652.3h364.1v-42.9H535.2V652.3z"/>
	</g>
	<g>
		<rect x="655.2" y="713.2" fill="#F1F2F2" width="122.8" height="11.1"/>
		<path d="M778,726.5H655.2c-1.2,0-2.2-1-2.2-2.2v-11.1c0-1.2,1-2.2,2.2-2.2H778c1.2,0,2.2,1,2.2,2.2v11.1
			C780.2,725.5,779.2,726.5,778,726.5z M657.4,722.1h118.5v-6.7H657.4V722.1z"/>
	</g>
	<g>
		<path fill="#FFFFFF" d="M728.8,630.8c0,6.7-5.5,12.2-12.2,12.2c-6.7,0-12.2-5.5-12.2-12.2c0-6.7,5.5-12.2,12.2-12.2
			C723.3,618.6,728.8,624.1,728.8,630.8z"/>
		<path d="M716.6,645.2c-7.9,0-14.4-6.4-14.4-14.4c0-7.9,6.5-14.4,14.4-14.4c7.9,0,14.4,6.5,14.4,14.4
			C731,638.8,724.5,645.2,716.6,645.2z M716.6,620.8c-5.5,0-10,4.5-10,10c0,5.5,4.5,10,10,10s10-4.5,10-10
			C726.6,625.3,722.1,620.8,716.6,620.8z"/>
	</g>
	<g>
		<rect x="689.9" y="654.5" fill="#BCBEC0" width="54.7" height="58.7"/>
		<path d="M744.6,715.4h-54.7c-1.2,0-2.2-1-2.2-2.2v-58.7c0-1.2,1-2.2,2.2-2.2h54.7c1.2,0,2.2,1,2.2,2.2v58.7
			C746.8,714.4,745.8,715.4,744.6,715.4z M692.1,711h50.4v-54.4h-50.4V711z"/>
	</g>
	<g>
		<path d="M610.5,198.1c0,13-4.8,20.1-13.3,20.1c-7.5,0-12.5-7-12.6-19.6c0-12.8,5.5-19.8,13.3-19.8
			C606,178.8,610.5,185.9,610.5,198.1z M589.8,198.7c0,9.9,3.1,15.6,7.7,15.6c5.3,0,7.8-6.2,7.8-15.9c0-9.4-2.4-15.6-7.8-15.6
			C593.1,182.8,589.8,188.3,589.8,198.7z"/>
		<path d="M626.5,184.2h-0.1l-6.6,3.6l-1-3.9l8.3-4.5h4.4v38.1h-5V184.2z"/>
		<path d="M670.8,198.1c0,13-4.8,20.1-13.3,20.1c-7.5,0-12.5-7-12.6-19.6c0-12.8,5.5-19.8,13.3-19.8
			C666.2,178.8,670.8,185.9,670.8,198.1z M650,198.7c0,9.9,3.1,15.6,7.7,15.6c5.3,0,7.8-6.2,7.8-15.9c0-9.4-2.4-15.6-7.8-15.6
			C653.3,182.8,650,188.3,650,198.7z"/>
		<path d="M700.9,198.1c0,13-4.8,20.1-13.3,20.1c-7.5,0-12.5-7-12.6-19.6c0-12.8,5.5-19.8,13.3-19.8
			C696.3,178.8,700.9,185.9,700.9,198.1z M680.1,198.7c0,9.9,3,15.6,7.7,15.6c5.3,0,7.8-6.2,7.8-15.9c0-9.4-2.4-15.6-7.7-15.6
			C683.4,182.8,680.1,188.3,680.1,198.7z"/>
		<path d="M716.8,184.2h-0.1l-6.6,3.6l-1-3.9l8.3-4.5h4.4v38.1h-5V184.2z"/>
		<path d="M746.9,184.2h-0.1l-6.6,3.6l-1-3.9l8.3-4.5h4.4v38.1h-5V184.2z"/>
		<path d="M791.2,198.1c0,13-4.8,20.1-13.3,20.1c-7.5,0-12.5-7-12.6-19.6c0-12.8,5.5-19.8,13.3-19.8
			C786.6,178.8,791.2,185.9,791.2,198.1z M770.5,198.7c0,9.9,3,15.6,7.7,15.6c5.3,0,7.8-6.2,7.8-15.9c0-9.4-2.4-15.6-7.7-15.6
			C773.7,182.8,770.5,188.3,770.5,198.7z"/>
		<path d="M807.1,184.2H807l-6.6,3.6l-1-3.9l8.3-4.5h4.4v38.1h-5V184.2z"/>
		<path d="M851.4,198.1c0,13-4.8,20.1-13.3,20.1c-7.5,0-12.5-7-12.6-19.6c0-12.8,5.5-19.8,13.3-19.8
			C846.8,178.8,851.4,185.9,851.4,198.1z M830.7,198.7c0,9.9,3.1,15.6,7.8,15.6c5.3,0,7.8-6.2,7.8-15.9c0-9.4-2.4-15.6-7.7-15.6
			C834,182.8,830.7,188.3,830.7,198.7z"/>
	</g>
	<g>
		<path d="M610.5,271.4c0,13-4.8,20.1-13.3,20.1c-7.5,0-12.5-7-12.6-19.6c0-12.8,5.5-19.8,13.3-19.8
			C606,252.1,610.5,259.3,610.5,271.4z M589.8,272c0,9.9,3.1,15.6,7.7,15.6c5.3,0,7.8-6.2,7.8-15.9c0-9.4-2.4-15.6-7.8-15.6
			C593.1,256.1,589.8,261.6,589.8,272z"/>
		<path d="M640.6,271.4c0,13-4.8,20.1-13.3,20.1c-7.5,0-12.5-7-12.6-19.6c0-12.8,5.5-19.8,13.3-19.8
			C636.1,252.1,640.6,259.3,640.6,271.4z M619.9,272c0,9.9,3.1,15.6,7.7,15.6c5.3,0,7.8-6.2,7.8-15.9c0-9.4-2.4-15.6-7.8-15.6
			C623.2,256.1,619.9,261.6,619.9,272z"/>
		<path d="M656.6,257.6h-0.1l-6.6,3.6l-1-3.9l8.3-4.5h4.4v38.1h-5V257.6z"/>
		<path d="M686.7,257.6h-0.1l-6.6,3.6l-1-3.9l8.3-4.5h4.4v38.1h-5V257.6z"/>
		<path d="M731,271.4c0,13-4.8,20.1-13.3,20.1c-7.5,0-12.5-7-12.6-19.6c0-12.8,5.5-19.8,13.3-19.8C726.4,252.1,731,259.3,731,271.4z
			 M710.3,272c0,9.9,3,15.6,7.7,15.6c5.3,0,7.8-6.2,7.8-15.9c0-9.4-2.4-15.6-7.7-15.6C713.5,256.1,710.3,261.6,710.3,272z"/>
		<path d="M746.9,257.6h-0.1l-6.6,3.6l-1-3.9l8.3-4.5h4.4v38.1h-5V257.6z"/>
		<path d="M791.2,271.4c0,13-4.8,20.1-13.3,20.1c-7.5,0-12.5-7-12.6-19.6c0-12.8,5.5-19.8,13.3-19.8
			C786.6,252.1,791.2,259.3,791.2,271.4z M770.5,272c0,9.9,3,15.6,7.7,15.6c5.3,0,7.8-6.2,7.8-15.9c0-9.4-2.4-15.6-7.7-15.6
			C773.7,256.1,770.5,261.6,770.5,272z"/>
		<path d="M821.3,271.4c0,13-4.8,20.1-13.3,20.1c-7.5,0-12.5-7-12.6-19.6c0-12.8,5.5-19.8,13.3-19.8
			C816.7,252.1,821.3,259.3,821.3,271.4z M800.6,272c0,9.9,3.1,15.6,7.8,15.6c5.3,0,7.8-6.2,7.8-15.9c0-9.4-2.4-15.6-7.7-15.6
			C803.9,256.1,800.6,261.6,800.6,272z"/>
		<path d="M837.2,257.6h-0.1l-6.6,3.6l-1-3.9l8.3-4.5h4.4v38.1h-5V257.6z"/>
	</g>
	<g>
		<path d="M610.5,344.8c0,13-4.8,20.1-13.3,20.1c-7.5,0-12.5-7-12.6-19.6c0-12.8,5.5-19.8,13.3-19.8
			C606,325.5,610.5,332.6,610.5,344.8z M589.8,345.4c0,9.9,3.1,15.6,7.7,15.6c5.3,0,7.8-6.2,7.8-15.9c0-9.4-2.4-15.6-7.8-15.6
			C593.1,329.5,589.8,335,589.8,345.4z"/>
		<path d="M640.6,344.8c0,13-4.8,20.1-13.3,20.1c-7.5,0-12.5-7-12.6-19.6c0-12.8,5.5-19.8,13.3-19.8
			C636.1,325.5,640.6,332.6,640.6,344.8z M619.9,345.4c0,9.9,3.1,15.6,7.7,15.6c5.3,0,7.8-6.2,7.8-15.9c0-9.4-2.4-15.6-7.8-15.6
			C623.2,329.5,619.9,335,619.9,345.4z"/>
		<path d="M670.8,344.8c0,13-4.8,20.1-13.3,20.1c-7.5,0-12.5-7-12.6-19.6c0-12.8,5.5-19.8,13.3-19.8
			C666.2,325.5,670.8,332.6,670.8,344.8z M650,345.4c0,9.9,3.1,15.6,7.7,15.6c5.3,0,7.8-6.2,7.8-15.9c0-9.4-2.4-15.6-7.8-15.6
			C653.3,329.5,650,335,650,345.4z"/>
		<path d="M686.7,330.9h-0.1l-6.6,3.6l-1-3.9l8.3-4.5h4.4v38.1h-5V330.9z"/>
		<path d="M716.8,330.9h-0.1l-6.6,3.6l-1-3.9l8.3-4.5h4.4v38.1h-5V330.9z"/>
		<path d="M761.1,344.8c0,13-4.8,20.1-13.3,20.1c-7.5,0-12.5-7-12.6-19.6c0-12.8,5.5-19.8,13.3-19.8
			C756.5,325.5,761.1,332.6,761.1,344.8z M740.4,345.4c0,9.9,3,15.6,7.7,15.6c5.3,0,7.8-6.2,7.8-15.9c0-9.4-2.4-15.6-7.7-15.6
			C743.6,329.5,740.4,335,740.4,345.4z"/>
		<path d="M791.2,344.8c0,13-4.8,20.1-13.3,20.1c-7.5,0-12.5-7-12.6-19.6c0-12.8,5.5-19.8,13.3-19.8
			C786.6,325.5,791.2,332.6,791.2,344.8z M770.5,345.4c0,9.9,3,15.6,7.7,15.6c5.3,0,7.8-6.2,7.8-15.9c0-9.4-2.4-15.6-7.7-15.6
			C773.7,329.5,770.5,335,770.5,345.4z"/>
		<path d="M807.1,330.9H807l-6.6,3.6l-1-3.9l8.3-4.5h4.4v38.1h-5V330.9z"/>
		<path d="M837.2,330.9h-0.1l-6.6,3.6l-1-3.9l8.3-4.5h4.4v38.1h-5V330.9z"/>
	</g>
	<g>
		<path d="M610.5,418.1c0,13-4.8,20.1-13.3,20.1c-7.5,0-12.5-7-12.6-19.6c0-12.8,5.5-19.8,13.3-19.8
			C606,398.8,610.5,406,610.5,418.1z M589.8,418.7c0,9.9,3.1,15.6,7.7,15.6c5.3,0,7.8-6.2,7.8-15.9c0-9.4-2.4-15.6-7.8-15.6
			C593.1,402.8,589.8,408.3,589.8,418.7z"/>
		<path d="M626.5,404.3h-0.1l-6.6,3.6l-1-3.9l8.3-4.5h4.4v38.1h-5V404.3z"/>
		<path d="M670.8,418.1c0,13-4.8,20.1-13.3,20.1c-7.5,0-12.5-7-12.6-19.6c0-12.8,5.5-19.8,13.3-19.8
			C666.2,398.8,670.8,406,670.8,418.1z M650,418.7c0,9.9,3.1,15.6,7.7,15.6c5.3,0,7.8-6.2,7.8-15.9c0-9.4-2.4-15.6-7.8-15.6
			C653.3,402.8,650,408.3,650,418.7z"/>
		<path d="M686.7,404.3h-0.1l-6.6,3.6l-1-3.9l8.3-4.5h4.4v38.1h-5V404.3z"/>
		<path d="M716.8,404.3h-0.1l-6.6,3.6l-1-3.9l8.3-4.5h4.4v38.1h-5V404.3z"/>
		<path d="M746.9,404.3h-0.1l-6.6,3.6l-1-3.9l8.3-4.5h4.4v38.1h-5V404.3z"/>
		<path d="M791.2,418.1c0,13-4.8,20.1-13.3,20.1c-7.5,0-12.5-7-12.6-19.6c0-12.8,5.5-19.8,13.3-19.8
			C786.6,398.8,791.2,406,791.2,418.1z M770.5,418.7c0,9.9,3,15.6,7.7,15.6c5.3,0,7.8-6.2,7.8-15.9c0-9.4-2.4-15.6-7.7-15.6
			C773.7,402.8,770.5,408.3,770.5,418.7z"/>
		<path d="M807.1,404.3H807l-6.6,3.6l-1-3.9l8.3-4.5h4.4v38.1h-5V404.3z"/>
		<path d="M851.4,418.1c0,13-4.8,20.1-13.3,20.1c-7.5,0-12.5-7-12.6-19.6c0-12.8,5.5-19.8,13.3-19.8
			C846.8,398.8,851.4,406,851.4,418.1z M830.7,418.7c0,9.9,3.1,15.6,7.8,15.6c5.3,0,7.8-6.2,7.8-15.9c0-9.4-2.4-15.6-7.7-15.6
			C834,402.8,830.7,408.3,830.7,418.7z"/>
	</g>
	<g>
		<path d="M610.5,126.1c0,13-4.8,20.1-13.3,20.1c-7.5,0-12.5-7-12.6-19.6c0-12.8,5.5-19.8,13.3-19.8
			C606,106.8,610.5,113.9,610.5,126.1z M589.8,126.7c0,9.9,3.1,15.6,7.7,15.6c5.3,0,7.8-6.2,7.8-15.9c0-9.4-2.4-15.6-7.8-15.6
			C593.1,110.8,589.8,116.3,589.8,126.7z"/>
		<path d="M640.6,126.1c0,13-4.8,20.1-13.3,20.1c-7.5,0-12.5-7-12.6-19.6c0-12.8,5.5-19.8,13.3-19.8
			C636.1,106.8,640.6,113.9,640.6,126.1z M619.9,126.7c0,9.9,3.1,15.6,7.7,15.6c5.3,0,7.8-6.2,7.8-15.9c0-9.4-2.4-15.6-7.8-15.6
			C623.2,110.8,619.9,116.3,619.9,126.7z"/>
		<path d="M670.8,126.1c0,13-4.8,20.1-13.3,20.1c-7.5,0-12.5-7-12.6-19.6c0-12.8,5.5-19.8,13.3-19.8
			C666.2,106.8,670.8,113.9,670.8,126.1z M650,126.7c0,9.9,3.1,15.6,7.7,15.6c5.3,0,7.8-6.2,7.8-15.9c0-9.4-2.4-15.6-7.8-15.6
			C653.3,110.8,650,116.3,650,126.7z"/>
		<path d="M686.7,112.2h-0.1l-6.6,3.6l-1-3.9l8.3-4.5h4.4v38.1h-5V112.2z"/>
		<path d="M716.8,112.2h-0.1l-6.6,3.6l-1-3.9l8.3-4.5h4.4v38.1h-5V112.2z"/>
		<path d="M761.1,126.1c0,13-4.8,20.1-13.3,20.1c-7.5,0-12.5-7-12.6-19.6c0-12.8,5.5-19.8,13.3-19.8
			C756.5,106.8,761.1,113.9,761.1,126.1z M740.4,126.7c0,9.9,3,15.6,7.7,15.6c5.3,0,7.8-6.2,7.8-15.9c0-9.4-2.4-15.6-7.7-15.6
			C743.6,110.8,740.4,116.3,740.4,126.7z"/>
		<path d="M791.2,126.1c0,13-4.8,20.1-13.3,20.1c-7.5,0-12.5-7-12.6-19.6c0-12.8,5.5-19.8,13.3-19.8
			C786.6,106.8,791.2,113.9,791.2,126.1z M770.5,126.7c0,9.9,3,15.6,7.7,15.6c5.3,0,7.8-6.2,7.8-15.9c0-9.4-2.4-15.6-7.7-15.6
			C773.7,110.8,770.5,116.3,770.5,126.7z"/>
		<path d="M807.1,112.2H807l-6.6,3.6l-1-3.9l8.3-4.5h4.4v38.1h-5V112.2z"/>
		<path d="M837.2,112.2h-0.1l-6.6,3.6l-1-3.9l8.3-4.5h4.4v38.1h-5V112.2z"/>
	</g>
	<g>
		<path d="M610.5,491.5c0,13-4.8,20.1-13.3,20.1c-7.5,0-12.5-7-12.6-19.6c0-12.8,5.5-19.8,13.3-19.8
			C606,472.2,610.5,479.4,610.5,491.5z M589.8,492.1c0,9.9,3.1,15.6,7.7,15.6c5.3,0,7.8-6.2,7.8-15.9c0-9.4-2.4-15.6-7.8-15.6
			C593.1,476.2,589.8,481.7,589.8,492.1z"/>
		<path d="M640.6,491.5c0,13-4.8,20.1-13.3,20.1c-7.5,0-12.5-7-12.6-19.6c0-12.8,5.5-19.8,13.3-19.8
			C636.1,472.2,640.6,479.4,640.6,491.5z M619.9,492.1c0,9.9,3.1,15.6,7.7,15.6c5.3,0,7.8-6.2,7.8-15.9c0-9.4-2.4-15.6-7.8-15.6
			C623.2,476.2,619.9,481.7,619.9,492.1z"/>
		<path d="M656.6,477.6h-0.1l-6.6,3.6l-1-3.9l8.3-4.5h4.4V511h-5V477.6z"/>
		<path d="M700.9,491.5c0,13-4.8,20.1-13.3,20.1c-7.5,0-12.5-7-12.6-19.6c0-12.8,5.5-19.8,13.3-19.8
			C696.3,472.2,700.9,479.4,700.9,491.5z M680.1,492.1c0,9.9,3,15.6,7.7,15.6c5.3,0,7.8-6.2,7.8-15.9c0-9.4-2.4-15.6-7.7-15.6
			C683.4,476.2,680.1,481.7,680.1,492.1z"/>
		<path d="M731,491.5c0,13-4.8,20.1-13.3,20.1c-7.5,0-12.5-7-12.6-19.6c0-12.8,5.5-19.8,13.3-19.8C726.4,472.2,731,479.4,731,491.5z
			 M710.3,492.1c0,9.9,3,15.6,7.7,15.6c5.3,0,7.8-6.2,7.8-15.9c0-9.4-2.4-15.6-7.7-15.6C713.5,476.2,710.3,481.7,710.3,492.1z"/>
		<path d="M761.1,491.5c0,13-4.8,20.1-13.3,20.1c-7.5,0-12.5-7-12.6-19.6c0-12.8,5.5-19.8,13.3-19.8
			C756.5,472.2,761.1,479.4,761.1,491.5z M740.4,492.1c0,9.9,3,15.6,7.7,15.6c5.3,0,7.8-6.2,7.8-15.9c0-9.4-2.4-15.6-7.7-15.6
			C743.6,476.2,740.4,481.7,740.4,492.1z"/>
		<path d="M777,477.6h-0.1l-6.6,3.6l-1-3.9l8.3-4.5h4.4V511h-5V477.6z"/>
		<path d="M807.1,477.6H807l-6.6,3.6l-1-3.9l8.3-4.5h4.4V511h-5V477.6z"/>
		<path d="M837.2,477.6h-0.1l-6.6,3.6l-1-3.9l8.3-4.5h4.4V511h-5V477.6z"/>
	</g>
	<g>
		<g>
			<path d="M989.3,122.7c-5.8,0-9.4,5.4-9.4,14c0.1,8.5,3.5,13.8,9,13.8c6,0,9.4-5.2,9.4-14.2C998.3,127.7,995,122.7,989.3,122.7z
				 M994.3,136.5c0,7-1.8,10.8-5.2,10.8c-3.2,0-5.2-4-5.2-10.6c0-6.7,2-10.8,5.2-10.8C992.4,125.9,994.3,129.6,994.3,136.5z"/>
		</g>
		<g>
			<path d="M1010.2,122.7c-5.8,0-9.4,5.4-9.4,14c0.1,8.5,3.5,13.8,9,13.8c6,0,9.4-5.2,9.4-14.2
				C1019.2,127.7,1015.9,122.7,1010.2,122.7z M1015.1,136.5c0,7-1.8,10.8-5.2,10.8c-3.2,0-5.1-4-5.1-10.6c0-6.7,2-10.8,5.2-10.8
				C1013.3,125.9,1015.1,129.6,1015.1,136.5z"/>
		</g>
		<g>
			<polygon points="1024.6,126.3 1024.4,126.3 1025.2,129.5 1029.8,127 1029.8,150 1033.7,150 1033.7,123.1 1030.4,123.1 			"/>
		</g>
		<g>
			<path d="M1052,122.7c-5.8,0-9.4,5.4-9.4,14c0.1,8.5,3.5,13.8,9,13.8c6,0,9.4-5.2,9.4-14.2C1060.9,127.7,1057.7,122.7,1052,122.7z
				 M1056.9,136.5c0,7-1.8,10.8-5.2,10.8c-3.2,0-5.2-4-5.2-10.6c0-6.7,2-10.8,5.2-10.8C1055.1,125.9,1056.9,129.6,1056.9,136.5z"/>
		</g>
		<g>
			<path d="M1072.9,122.7c-5.8,0-9.4,5.4-9.4,14c0.1,8.5,3.5,13.8,9,13.8c6,0,9.4-5.2,9.4-14.2
				C1081.8,127.7,1078.6,122.7,1072.9,122.7z M1077.8,136.5c0,7-1.8,10.8-5.2,10.8c-3.2,0-5.2-4-5.2-10.6c0-6.7,2-10.8,5.2-10.8
				C1076,125.9,1077.8,129.6,1077.8,136.5z"/>
		</g>
		<g>
			<path d="M1093.8,122.7c-5.8,0-9.4,5.4-9.4,14c0.1,8.5,3.5,13.8,9,13.8c6,0,9.4-5.2,9.4-14.2
				C1102.7,127.7,1099.5,122.7,1093.8,122.7z M1098.7,136.5c0,7-1.9,10.8-5.2,10.8c-3.2,0-5.2-4-5.2-10.6c0-6.7,2-10.8,5.2-10.8
				C1096.9,125.9,1098.7,129.6,1098.7,136.5z"/>
		</g>
		<g>
			<polygon points="1108.1,126.3 1108,126.3 1108.8,129.5 1113.4,127 1113.4,150 1117.3,150 1117.3,123.1 1114,123.1 			"/>
		</g>
		<g>
			<polygon points="1129,126.3 1128.9,126.3 1129.7,129.5 1134.3,127 1134.3,150 1138.2,150 1138.2,123.1 1134.9,123.1 			"/>
		</g>
		<g>
			<polygon points="1155.8,123.1 1149.9,126.3 1149.7,126.3 1150.5,129.5 1155.1,127 1155.1,150 1159,150 1159,123.1 			"/>
		</g>
	</g>
	<g>
		<path d="M596.4,551h-0.1l-6.6,3.6l-1-3.9l8.3-4.5h4.4v38.1h-5V551z"/>
		<path d="M640.6,564.9c0,13-4.8,20.1-13.3,20.1c-7.5,0-12.5-7-12.6-19.6c0-12.8,5.5-19.8,13.3-19.8
			C636.1,545.6,640.6,552.7,640.6,564.9z M619.9,565.4c0,9.9,3.1,15.6,7.7,15.6c5.3,0,7.8-6.2,7.8-15.9c0-9.4-2.4-15.6-7.8-15.6
			C623.2,549.5,619.9,555.1,619.9,565.4z"/>
		<path d="M670.8,564.9c0,13-4.8,20.1-13.3,20.1c-7.5,0-12.5-7-12.6-19.6c0-12.8,5.5-19.8,13.3-19.8
			C666.2,545.6,670.8,552.7,670.8,564.9z M650,565.4c0,9.9,3.1,15.6,7.7,15.6c5.3,0,7.8-6.2,7.8-15.9c0-9.4-2.4-15.6-7.8-15.6
			C653.3,549.5,650,555.1,650,565.4z"/>
		<path d="M700.9,564.9c0,13-4.8,20.1-13.3,20.1c-7.5,0-12.5-7-12.6-19.6c0-12.8,5.5-19.8,13.3-19.8
			C696.3,545.6,700.9,552.7,700.9,564.9z M680.1,565.4c0,9.9,3,15.6,7.7,15.6c5.3,0,7.8-6.2,7.8-15.9c0-9.4-2.4-15.6-7.7-15.6
			C683.4,549.5,680.1,555.1,680.1,565.4z"/>
		<path d="M716.8,551h-0.1l-6.6,3.6l-1-3.9l8.3-4.5h4.4v38.1h-5V551z"/>
		<path d="M761.1,564.9c0,13-4.8,20.1-13.3,20.1c-7.5,0-12.5-7-12.6-19.6c0-12.8,5.5-19.8,13.3-19.8
			C756.5,545.6,761.1,552.7,761.1,564.9z M740.4,565.4c0,9.9,3,15.6,7.7,15.6c5.3,0,7.8-6.2,7.8-15.9c0-9.4-2.4-15.6-7.7-15.6
			C743.6,549.5,740.4,555.1,740.4,565.4z"/>
		<path d="M791.2,564.9c0,13-4.8,20.1-13.3,20.1c-7.5,0-12.5-7-12.6-19.6c0-12.8,5.5-19.8,13.3-19.8
			C786.6,545.6,791.2,552.7,791.2,564.9z M770.5,565.4c0,9.9,3,15.6,7.7,15.6c5.3,0,7.8-6.2,7.8-15.9c0-9.4-2.4-15.6-7.7-15.6
			C773.7,549.5,770.5,555.1,770.5,565.4z"/>
		<path d="M807.1,551H807l-6.6,3.6l-1-3.9l8.3-4.5h4.4v38.1h-5V551z"/>
		<path d="M837.2,551h-0.1l-6.6,3.6l-1-3.9l8.3-4.5h4.4v38.1h-5V551z"/>
	</g>
	<g>
		<g>
			<rect x="980.1" y="600.5" fill="#FFB04F" width="294" height="51.2"/>
			<path d="M1274.1,653.9h-294c-1.2,0-2.2-1-2.2-2.2v-51.2c0-1.2,1-2.2,2.2-2.2h294c1.2,0,2.2,1,2.2,2.2v51.2
				C1276.3,653,1275.3,653.9,1274.1,653.9z M982.3,649.6h289.6v-46.9H982.3V649.6z"/>
		</g>
		<g>
			<path d="M1274.1,880.5h-294c-1.2,0-2.2-1-2.2-2.2V651.7c0-1.2,1-2.2,2.2-2.2h294c1.2,0,2.2,1,2.2,2.2v226.5
				C1276.3,879.5,1275.3,880.5,1274.1,880.5z M982.3,876.1h289.6V653.9H982.3V876.1z"/>
		</g>
	</g>
	<g>
		<path d="M1068,823.4c-0.6,0-1.1-0.2-1.5-0.6l-56.3-56.3c-0.9-0.9-0.9-2.2,0-3.1l56.3-56.3c0.9-0.9,2.2-0.9,3.1,0s0.9,2.2,0,3.1
			l-54.7,54.7l54.7,54.7c0.9,0.9,0.9,2.2,0,3.1C1069.1,823.2,1068.6,823.4,1068,823.4z"/>
	</g>
	<g>
		<path d="M184.6,558.3c-0.6,0-1.1-0.2-1.5-0.6l-31.8-31.8c-0.9-0.9-0.9-2.2,0-3.1L183,491c0.9-0.9,2.2-0.9,3.1,0
			c0.9,0.9,0.9,2.2,0,3.1l-30.2,30.2l30.2,30.2c0.9,0.9,0.9,2.2,0,3.1C185.7,558.1,185.1,558.3,184.6,558.3z"/>
	</g>
	<g>
		<path d="M397.8,558.3c-0.6,0-1.1-0.2-1.5-0.6c-0.9-0.9-0.9-2.2,0-3.1l30.2-30.2l-30.2-30.2c-0.9-0.9-0.9-2.2,0-3.1
			c0.9-0.9,2.2-0.9,3.1,0l31.8,31.8c0.9,0.9,0.9,2.2,0,3.1l-31.8,31.8C399,558.1,398.4,558.3,397.8,558.3z"/>
	</g>
	<g>
		<path d="M1184.4,823.4c-0.6,0-1.1-0.2-1.5-0.6c-0.9-0.9-0.9-2.2,0-3.1l54.7-54.7l-54.7-54.7c-0.9-0.9-0.9-2.2,0-3.1s2.2-0.9,3.1,0
			l56.3,56.3c0.9,0.9,0.9,2.2,0,3.1l-56.3,56.3C1185.5,823.2,1185,823.4,1184.4,823.4z"/>
	</g>
	<g>
		<path fill="#FFFFFF" d="M1249.7,626.1c0,5-4,9-9,9c-5,0-9-4-9-9c0-5,4-9,9-9C1245.6,617.1,1249.7,621.2,1249.7,626.1z"/>
		<path d="M1240.7,637.3c-6.2,0-11.2-5-11.2-11.2s5-11.2,11.2-11.2s11.2,5,11.2,11.2S1246.8,637.3,1240.7,637.3z M1240.7,619.3
			c-3.8,0-6.8,3.1-6.8,6.8c0,3.8,3.1,6.8,6.8,6.8c3.8,0,6.8-3.1,6.8-6.8C1247.5,622.4,1244.4,619.3,1240.7,619.3z"/>
	</g>
	<g>
		<path d="M1221.8,637.3h-23.4c-1.2,0-2.2-1-2.2-2.2s1-2.2,2.2-2.2h23.4c1.2,0,2.2,1,2.2,2.2S1223.1,637.3,1221.8,637.3z"/>
	</g>
	<g>
		<g>
			<path d="M1020.6,639.4c-0.6,0-1.1-0.2-1.5-0.6l-22.2-22.2c-0.9-0.9-0.9-2.2,0-3.1s2.2-0.9,3.1,0l22.2,22.2c0.9,0.9,0.9,2.2,0,3.1
				C1021.7,639.2,1021.2,639.4,1020.6,639.4z"/>
		</g>
		<g>
			<path d="M998.4,639.4c-0.6,0-1.1-0.2-1.5-0.6c-0.9-0.9-0.9-2.2,0-3.1l22.2-22.2c0.9-0.9,2.2-0.9,3.1,0s0.9,2.2,0,3.1l-22.2,22.2
				C999.5,639.2,998.9,639.4,998.4,639.4z"/>
		</g>
	</g>
	<g>
		<g>
			<rect x="123.9" y="108.9" fill="#FFB04F" width="334.7" height="58.3"/>
			<path d="M458.5,169.4H123.9c-1.2,0-2.2-1-2.2-2.2v-58.3c0-1.2,1-2.2,2.2-2.2h334.7c1.2,0,2.2,1,2.2,2.2v58.3
				C460.7,168.4,459.8,169.4,458.5,169.4z M126.1,165h330.3v-54H126.1V165z"/>
		</g>
		<g>
			<path d="M458.5,427.3H123.9c-1.2,0-2.2-1-2.2-2.2V167.2c0-1.2,1-2.2,2.2-2.2h334.7c1.2,0,2.2,1,2.2,2.2v257.9
				C460.7,426.3,459.8,427.3,458.5,427.3z M126.1,423h330.3V169.4H126.1V423z"/>
		</g>
	</g>
	<g>
		<path fill="#FFFFFF" d="M430.7,138.1c0,5.7-4.6,10.2-10.2,10.2s-10.2-4.6-10.2-10.2c0-5.7,4.6-10.2,10.2-10.2
			S430.7,132.4,430.7,138.1z"/>
		<path d="M420.5,150.5c-6.8,0-12.4-5.6-12.4-12.4c0-6.8,5.6-12.4,12.4-12.4s12.4,5.6,12.4,12.4
			C432.9,144.9,427.3,150.5,420.5,150.5z M420.5,130c-4.4,0-8.1,3.6-8.1,8.1c0,4.4,3.6,8,8.1,8c4.4,0,8-3.6,8-8
			C428.5,133.6,424.9,130,420.5,130z"/>
	</g>
	<g>
		<path d="M399.1,150.5h-26.6c-1.2,0-2.2-1-2.2-2.2s1-2.2,2.2-2.2h26.6c1.2,0,2.2,1,2.2,2.2S400.3,150.5,399.1,150.5z"/>
	</g>
	<g>
		<g>
			<path d="M169.9,152.9c-0.6,0-1.1-0.2-1.5-0.6L143,126.9c-0.9-0.9-0.9-2.2,0-3.1s2.2-0.9,3.1,0l25.3,25.3c0.9,0.9,0.9,2.2,0,3.1
				C171,152.7,170.5,152.9,169.9,152.9z"/>
		</g>
		<g>
			<path d="M144.6,152.9c-0.6,0-1.1-0.2-1.5-0.6c-0.9-0.9-0.9-2.2,0-3.1l25.3-25.3c0.9-0.9,2.2-0.9,3.1,0s0.9,2.2,0,3.1l-25.3,25.3
				C145.7,152.7,145.2,152.9,144.6,152.9z"/>
		</g>
	</g>
	<g>
		<g>
			<path d="M215.3,374.7c-8.8,0-15.5-1.6-19.9-4.8c-4.3-3.2-6.4-7.8-6.4-14.2c0-5,1.6-12.9,4.7-23.3c3.3-10.9,4.9-18.8,4.9-24
				c0-7.1-3.3-15.6-18.9-15.6c-0.6,0-1.2,0-1.8,0l-2.7,0.1v-3.9c0.8,0,1.5,0,2.2,0c14,0,21.1-5.8,21.1-17.3c0-5.6-1.6-13.6-4.7-23.6
				c-2.9-10.2-4.4-17.9-4.4-23.1c0-12.2,8-18.1,24.4-18.1h1.6v3.5c-0.2,0-2.4,0-2.4,0c-12.1,0-18.5,5.8-18.5,16.6
				c0,5.5,1.5,13.6,4.5,24.2c2.9,10.2,4.4,18,4.4,23.3c0,8.8-3.9,13.8-12,15.1l-0.1,2.6c8,1.8,11.9,6.7,11.9,14.8
				c0,5-1.6,12.7-4.7,22.9c-3.3,10.6-4.9,18.2-4.9,23.5c0,11.4,7.3,17.3,21.8,17.5v3.7H215.3z"/>
		</g>
	</g>
	<g>
		<g>
			<path d="M367.3,374.7V371c14.5-0.2,21.8-6.1,21.8-17.5c0-5.2-1.6-12.9-4.9-23.5c-3.1-10.2-4.7-17.9-4.7-22.9
				c0-8.1,3.9-13,11.9-14.8l-0.1-2.6c-8.1-1.4-12-6.3-12-15.1c0-5.3,1.5-13.1,4.4-23.3c3-10.5,4.5-18.7,4.5-24.2
				c0-10.9-6.4-16.6-18.5-16.6c0,0-2.2,0-2.4,0v-3.5h1.6c16.4,0,24.4,5.9,24.4,18.1c0,5.1-1.5,12.9-4.4,23.1
				c-3.1,10-4.7,18-4.7,23.6c0,11.5,7.1,17.3,21.1,17.3c0.7,0,1.4,0,2.2,0v3.9l-2.7-0.1c-0.6,0-1.2,0-1.8,0
				c-15.6,0-18.9,8.5-18.9,15.6c0,5.2,1.6,13.1,4.9,24c3.2,10.4,4.7,18.2,4.7,23.3c0,12.8-8.6,19-26.2,19H367.3z"/>
		</g>
	</g>
	<g>
		<path d="M258.9,362.5c-0.3,0-0.6-0.1-0.9-0.2c-1.1-0.5-1.6-1.8-1.1-2.9l64.7-138.9c0.5-1.1,1.8-1.6,2.9-1.1
			c1.1,0.5,1.6,1.8,1.1,2.9l-64.7,138.9C260.5,362.1,259.7,362.5,258.9,362.5z"/>
	</g>
	<g>
		<path d="M1099.6,826.2c-0.3,0-0.6-0.1-0.9-0.2c-1.1-0.5-1.6-1.8-1.1-2.9l55-118.1c0.5-1.1,1.8-1.6,2.9-1.1
			c1.1,0.5,1.6,1.8,1.1,2.9l-55,118.1C1101.2,825.8,1100.5,826.2,1099.6,826.2z"/>
	</g>
	<g>
		<g>
			<path d="M233.2,640.5c-4.8,0-7.8,4.4-7.8,11.4c0.1,7,2.9,11.3,7.5,11.3c5,0,7.8-4.2,7.8-11.6
				C240.7,644.6,237.9,640.5,233.2,640.5z M233,643.7c3.2,0,3.7,5,3.7,8c0,3.1-0.5,8.2-3.7,8.2c-2.3,0-3.7-3.1-3.7-8
				C229.3,647,230.8,643.7,233,643.7z"/>
		</g>
		<g>
			<polygon points="248.4,644.9 248.4,662.9 252.2,662.9 252.2,640.8 249.2,640.8 244,643.5 244.8,646.8 			"/>
		</g>
		<g>
			<path d="M266.3,640.5c-4.8,0-7.8,4.4-7.8,11.4c0.1,7,2.9,11.3,7.5,11.3c5,0,7.8-4.2,7.8-11.6C273.8,644.6,271,640.5,266.3,640.5z
				 M266.1,643.7c3.2,0,3.7,5,3.7,8c0,3.1-0.5,8.2-3.7,8.2c-2.3,0-3.7-3.1-3.7-8C262.4,647,263.9,643.7,266.1,643.7z"/>
		</g>
		<g>
			<path d="M282.8,640.5c-4.8,0-7.8,4.4-7.8,11.4c0.1,7,2.9,11.3,7.5,11.3c5,0,7.8-4.2,7.8-11.6
				C290.3,644.6,287.5,640.5,282.8,640.5z M282.7,643.7c3.2,0,3.7,5,3.7,8c0,3.1-0.5,8.2-3.7,8.2c-2.3,0-3.7-3.1-3.7-8
				C278.9,647,280.4,643.7,282.7,643.7z"/>
		</g>
		<g>
			<polygon points="298,644.9 298,662.9 301.8,662.9 301.8,640.8 298.9,640.8 293.7,643.5 294.5,646.8 			"/>
		</g>
		<g>
			<polygon points="310.2,643.5 311,646.8 314.5,644.9 314.5,662.9 318.4,662.9 318.4,640.8 315.4,640.8 			"/>
		</g>
		<g>
			<path d="M332.5,640.5c-4.8,0-7.8,4.4-7.8,11.4c0.1,7,2.9,11.3,7.5,11.3c5,0,7.8-4.2,7.8-11.6C340,644.6,337.2,640.5,332.5,640.5z
				 M332.3,643.7c3.2,0,3.7,5,3.7,8c0,3.1-0.5,8.2-3.7,8.2c-2.3,0-3.7-3.1-3.7-8C328.6,647,330,643.7,332.3,643.7z"/>
		</g>
		<g>
			<polygon points="347.6,644.9 347.6,662.9 351.5,662.9 351.5,640.8 348.5,640.8 343.3,643.5 344.1,646.8 			"/>
		</g>
		<g>
			<path d="M365.6,640.5c-4.8,0-7.8,4.4-7.8,11.4c0.1,7,2.9,11.3,7.5,11.3c5,0,7.8-4.2,7.8-11.6
				C373.1,644.6,370.3,640.5,365.6,640.5z M365.4,643.7c3.2,0,3.7,5,3.7,8c0,3.1-0.5,8.2-3.7,8.2c-2.3,0-3.7-3.1-3.7-8
				C361.7,647,363.1,643.7,365.4,643.7z"/>
		</g>
		<g>
			<path d="M233.2,675.3c-4.8,0-7.8,4.4-7.8,11.4c0.1,7,2.9,11.3,7.5,11.3c5,0,7.8-4.2,7.8-11.6
				C240.7,679.5,237.9,675.3,233.2,675.3z M233,678.6c3.2,0,3.7,5,3.7,8c0,3.1-0.5,8.2-3.7,8.2c-2.3,0-3.7-3.1-3.7-8
				C229.3,681.8,230.8,678.6,233,678.6z"/>
		</g>
		<g>
			<path d="M249.7,675.3c-4.8,0-7.8,4.4-7.8,11.4c0.1,7,2.9,11.3,7.5,11.3c5,0,7.8-4.2,7.8-11.6
				C257.2,679.5,254.4,675.3,249.7,675.3z M249.6,678.6c3.2,0,3.7,5,3.7,8c0,3.1-0.5,8.2-3.7,8.2c-2.3,0-3.7-3.1-3.7-8
				C245.8,681.8,247.3,678.6,249.6,678.6z"/>
		</g>
		<g>
			<polygon points="260.6,678.4 261.4,681.6 264.9,679.7 264.9,697.7 268.7,697.7 268.7,675.7 265.8,675.7 			"/>
		</g>
		<g>
			<polygon points="277.1,678.4 277.9,681.6 281.5,679.7 281.5,697.7 285.3,697.7 285.3,675.7 282.3,675.7 			"/>
		</g>
		<g>
			<path d="M299.4,675.3c-4.8,0-7.8,4.4-7.8,11.4c0.1,7,2.9,11.3,7.5,11.3c5,0,7.8-4.2,7.8-11.6
				C306.9,679.5,304.1,675.3,299.4,675.3z M299.2,678.6c3.2,0,3.7,5,3.7,8c0,3.1-0.5,8.2-3.7,8.2c-2.3,0-3.7-3.1-3.7-8
				C295.5,681.8,297,678.6,299.2,678.6z"/>
		</g>
		<g>
			<polygon points="310.2,678.4 311,681.6 314.5,679.7 314.5,697.7 318.4,697.7 318.4,675.7 315.4,675.7 			"/>
		</g>
		<g>
			<path d="M332.5,675.3c-4.8,0-7.8,4.4-7.8,11.4c0.1,7,2.9,11.3,7.5,11.3c5,0,7.8-4.2,7.8-11.6C340,679.5,337.2,675.3,332.5,675.3z
				 M332.3,678.6c3.2,0,3.7,5,3.7,8c0,3.1-0.5,8.2-3.7,8.2c-2.3,0-3.7-3.1-3.7-8C328.6,681.8,330,678.6,332.3,678.6z"/>
		</g>
		<g>
			<path d="M349,675.3c-4.8,0-7.8,4.4-7.8,11.4c0.1,7,2.9,11.3,7.5,11.3c5,0,7.8-4.2,7.8-11.6C356.5,679.5,353.7,675.3,349,675.3z
				 M348.9,678.6c3.2,0,3.7,5,3.7,8c0,3.1-0.5,8.2-3.7,8.2c-2.3,0-3.7-3.1-3.7-8C345.1,681.8,346.6,678.6,348.9,678.6z"/>
		</g>
		<g>
			<polygon points="359.8,678.4 360.7,681.6 364.2,679.7 364.2,697.7 368,697.7 368,675.7 365.1,675.7 			"/>
		</g>
	</g>
	<g>
		<path d="M237.1,863.2c-0.6,0-1.1-0.2-1.5-0.6c-0.9-0.9-0.9-2.2,0-3.1l26.4-26.4l-26.4-26.4c-0.9-0.9-0.9-2.2,0-3.1
			c0.9-0.9,2.2-0.9,3.1,0l27.9,27.9c0.9,0.9,0.9,2.2,0,3.1l-27.9,27.9C238.2,863,237.6,863.2,237.1,863.2z"/>
	</g>
	<g>
		<path d="M194.5,834.3h-18.4c-45.3,0-82.2-36.9-82.2-82.2c0-45.3,36.9-82.2,82.2-82.2c1.2,0,2.2,1,2.2,2.2c0,1.2-1,2.2-2.2,2.2
			c-42.9,0-77.9,34.9-77.9,77.9c0,42.9,34.9,77.9,77.9,77.9h18.4c1.2,0,2.2,1,2.2,2.2C196.7,833.3,195.7,834.3,194.5,834.3z"/>
	</g>
	<g>
		<path d="M306.4,863.2h-33.3c-1.2,0-2.2-1-2.2-2.2c0-1.2,1-2.2,2.2-2.2h33.3c1.2,0,2.2,1,2.2,2.2
			C308.6,862.2,307.6,863.2,306.4,863.2z"/>
	</g>
	<g>
		<path d="M179.2,849.4c-0.6,0-1.1-0.2-1.5-0.6c-0.9-0.9-0.9-2.2,0-3.1l13.7-13.7l-13.7-13.7c-0.9-0.9-0.9-2.2,0-3.1
			c0.9-0.9,2.2-0.9,3.1,0l15.3,15.3c0.9,0.9,0.9,2.2,0,3.1l-15.3,15.3C180.4,849.2,179.8,849.4,179.2,849.4z"/>
	</g>
	<g>
		<path d="M418.5,834.1c-1.2,0-2.2-1-2.2-2.2c0-1.2,1-2.2,2.2-2.2c42.9,0,77.9-34.9,77.9-77.9S461.4,674,418.5,674h-18.4
			c-1.2,0-2.2-1-2.2-2.2s1-2.2,2.2-2.2h18.4c45.3,0,82.2,36.9,82.2,82.2S463.9,834.1,418.5,834.1z"/>
	</g>
	<g>
		<path d="M415.4,689.5c-0.6,0-1.1-0.2-1.5-0.6l-15.3-15.3c-0.9-0.9-0.9-2.2,0-3.1l15.3-15.3c0.9-0.9,2.2-0.9,3.1,0
			c0.9,0.9,0.9,2.2,0,3.1L403.2,672l13.7,13.7c0.9,0.9,0.9,2.2,0,3.1C416.5,689.3,415.9,689.5,415.4,689.5z"/>
	</g>
	<g>
		<g>
			<rect x="531.5" y="760.7" fill="#F1F2F2" width="371.9" height="122.2"/>
			<path d="M903.4,885.1H531.5c-1.2,0-2.2-1-2.2-2.2V760.7c0-1.2,1-2.2,2.2-2.2h371.9c1.2,0,2.2,1,2.2,2.2V883
				C905.6,884.2,904.6,885.1,903.4,885.1z M533.7,880.8h367.5V762.9H533.7V880.8z"/>
		</g>
		<g>
			<rect x="546" y="776.5" fill="#FFFFFF" width="21.6" height="20.8"/>
			<path d="M567.6,799.5H546c-1.2,0-2.2-1-2.2-2.2v-20.8c0-1.2,1-2.2,2.2-2.2h21.6c1.2,0,2.2,1,2.2,2.2v20.8
				C569.8,798.5,568.8,799.5,567.6,799.5z M548.2,795.1h17.3v-16.4h-17.3V795.1z"/>
		</g>
		<g>
			<rect x="581.7" y="776.5" fill="#FFFFFF" width="21.6" height="20.8"/>
			<path d="M603.3,799.5h-21.6c-1.2,0-2.2-1-2.2-2.2v-20.8c0-1.2,1-2.2,2.2-2.2h21.6c1.2,0,2.2,1,2.2,2.2v20.8
				C605.5,798.5,604.5,799.5,603.3,799.5z M583.9,795.1h17.2v-16.4h-17.2V795.1z"/>
		</g>
		<g>
			<rect x="617.4" y="776.5" fill="#FFFFFF" width="21.6" height="20.8"/>
			<path d="M639,799.5h-21.6c-1.2,0-2.2-1-2.2-2.2v-20.8c0-1.2,1-2.2,2.2-2.2H639c1.2,0,2.2,1,2.2,2.2v20.8
				C641.2,798.5,640.2,799.5,639,799.5z M619.6,795.1h17.2v-16.4h-17.2V795.1z"/>
		</g>
		<g>
			<rect x="653.1" y="776.5" fill="#FFFFFF" width="21.6" height="20.8"/>
			<path d="M674.7,799.5h-21.6c-1.2,0-2.2-1-2.2-2.2v-20.8c0-1.2,1-2.2,2.2-2.2h21.6c1.2,0,2.2,1,2.2,2.2v20.8
				C676.9,798.5,675.9,799.5,674.7,799.5z M655.3,795.1h17.3v-16.4h-17.3V795.1z"/>
		</g>
		<g>
			<rect x="688.8" y="776.5" fill="#FFFFFF" width="21.6" height="20.8"/>
			<path d="M710.4,799.5h-21.6c-1.2,0-2.2-1-2.2-2.2v-20.8c0-1.2,1-2.2,2.2-2.2h21.6c1.2,0,2.2,1,2.2,2.2v20.8
				C712.6,798.5,711.6,799.5,710.4,799.5z M691,795.1h17.2v-16.4H691V795.1z"/>
		</g>
		<g>
			<rect x="724.5" y="776.5" fill="#FFFFFF" width="21.6" height="20.8"/>
			<path d="M746.1,799.5h-21.6c-1.2,0-2.2-1-2.2-2.2v-20.8c0-1.2,1-2.2,2.2-2.2h21.6c1.2,0,2.2,1,2.2,2.2v20.8
				C748.3,798.5,747.3,799.5,746.1,799.5z M726.7,795.1h17.2v-16.4h-17.2V795.1z"/>
		</g>
		<g>
			<rect x="760.2" y="776.5" fill="#FFFFFF" width="21.6" height="20.8"/>
			<path d="M781.8,799.5h-21.6c-1.2,0-2.2-1-2.2-2.2v-20.8c0-1.2,1-2.2,2.2-2.2h21.6c1.2,0,2.2,1,2.2,2.2v20.8
				C784,798.5,783,799.5,781.8,799.5z M762.4,795.1h17.2v-16.4h-17.2V795.1z"/>
		</g>
		<g>
			<rect x="795.9" y="776.5" fill="#FFFFFF" width="21.6" height="20.8"/>
			<path d="M817.5,799.5h-21.6c-1.2,0-2.2-1-2.2-2.2v-20.8c0-1.2,1-2.2,2.2-2.2h21.6c1.2,0,2.2,1,2.2,2.2v20.8
				C819.7,798.5,818.7,799.5,817.5,799.5z M798.1,795.1h17.2v-16.4h-17.2V795.1z"/>
		</g>
		<g>
			<rect x="831.6" y="776.5" fill="#FFFFFF" width="21.6" height="20.8"/>
			<path d="M853.2,799.5h-21.6c-1.2,0-2.2-1-2.2-2.2v-20.8c0-1.2,1-2.2,2.2-2.2h21.6c1.2,0,2.2,1,2.2,2.2v20.8
				C855.4,798.5,854.4,799.5,853.2,799.5z M833.8,795.1H851v-16.4h-17.2V795.1z"/>
		</g>
		<g>
			<rect x="867.3" y="776.5" fill="#FFFFFF" width="21.6" height="20.8"/>
			<path d="M888.9,799.5h-21.6c-1.2,0-2.2-1-2.2-2.2v-20.8c0-1.2,1-2.2,2.2-2.2h21.6c1.2,0,2.2,1,2.2,2.2v20.8
				C891.1,798.5,890.1,799.5,888.9,799.5z M869.5,795.1h17.2v-16.4h-17.2V795.1z"/>
		</g>
		<g>
			<rect x="546" y="811.8" fill="#FFFFFF" width="21.6" height="20.8"/>
			<path d="M567.6,834.8H546c-1.2,0-2.2-1-2.2-2.2v-20.8c0-1.2,1-2.2,2.2-2.2h21.6c1.2,0,2.2,1,2.2,2.2v20.8
				C569.8,833.8,568.8,834.8,567.6,834.8z M548.2,830.5h17.3V814h-17.3V830.5z"/>
		</g>
		<g>
			<rect x="581.7" y="811.8" fill="#FFFFFF" width="21.6" height="20.8"/>
			<path d="M603.3,834.8h-21.6c-1.2,0-2.2-1-2.2-2.2v-20.8c0-1.2,1-2.2,2.2-2.2h21.6c1.2,0,2.2,1,2.2,2.2v20.8
				C605.5,833.8,604.5,834.8,603.3,834.8z M583.9,830.5h17.2V814h-17.2V830.5z"/>
		</g>
		<g>
			<rect x="617.4" y="811.8" fill="#FFFFFF" width="21.6" height="20.8"/>
			<path d="M639,834.8h-21.6c-1.2,0-2.2-1-2.2-2.2v-20.8c0-1.2,1-2.2,2.2-2.2H639c1.2,0,2.2,1,2.2,2.2v20.8
				C641.2,833.8,640.2,834.8,639,834.8z M619.6,830.5h17.2V814h-17.2V830.5z"/>
		</g>
		<g>
			<rect x="653.1" y="811.8" fill="#FFFFFF" width="21.6" height="20.8"/>
			<path d="M674.7,834.8h-21.6c-1.2,0-2.2-1-2.2-2.2v-20.8c0-1.2,1-2.2,2.2-2.2h21.6c1.2,0,2.2,1,2.2,2.2v20.8
				C676.9,833.8,675.9,834.8,674.7,834.8z M655.3,830.5h17.3V814h-17.3V830.5z"/>
		</g>
		<g>
			<rect x="688.8" y="811.8" fill="#FFFFFF" width="21.6" height="20.8"/>
			<path d="M710.4,834.8h-21.6c-1.2,0-2.2-1-2.2-2.2v-20.8c0-1.2,1-2.2,2.2-2.2h21.6c1.2,0,2.2,1,2.2,2.2v20.8
				C712.6,833.8,711.6,834.8,710.4,834.8z M691,830.5h17.2V814H691V830.5z"/>
		</g>
		<g>
			<rect x="724.5" y="811.8" fill="#FFFFFF" width="21.6" height="20.8"/>
			<path d="M746.1,834.8h-21.6c-1.2,0-2.2-1-2.2-2.2v-20.8c0-1.2,1-2.2,2.2-2.2h21.6c1.2,0,2.2,1,2.2,2.2v20.8
				C748.3,833.8,747.3,834.8,746.1,834.8z M726.7,830.5h17.2V814h-17.2V830.5z"/>
		</g>
		<g>
			<rect x="831.6" y="811.8" fill="#FFFFFF" width="21.6" height="20.8"/>
			<path d="M853.2,834.8h-21.6c-1.2,0-2.2-1-2.2-2.2v-20.8c0-1.2,1-2.2,2.2-2.2h21.6c1.2,0,2.2,1,2.2,2.2v20.8
				C855.4,833.8,854.4,834.8,853.2,834.8z M833.8,830.5H851V814h-17.2V830.5z"/>
		</g>
		<g>
			<rect x="867.3" y="811.8" fill="#FFFFFF" width="21.6" height="56.2"/>
			<path d="M888.9,870.2h-21.6c-1.2,0-2.2-1-2.2-2.2v-56.2c0-1.2,1-2.2,2.2-2.2h21.6c1.2,0,2.2,1,2.2,2.2V868
				C891.1,869.2,890.1,870.2,888.9,870.2z M869.5,865.8h17.2V814h-17.2V865.8z"/>
		</g>
		<g>
			<rect x="546" y="847.2" fill="#FFFFFF" width="21.6" height="20.8"/>
			<path d="M567.6,870.2H546c-1.2,0-2.2-1-2.2-2.2v-20.8c0-1.2,1-2.2,2.2-2.2h21.6c1.2,0,2.2,1,2.2,2.2V868
				C569.8,869.2,568.8,870.2,567.6,870.2z M548.2,865.8h17.3v-16.4h-17.3V865.8z"/>
		</g>
		<g>
			<rect x="581.7" y="847.2" fill="#FFFFFF" width="57.3" height="20.8"/>
			<path d="M639,870.2h-57.3c-1.2,0-2.2-1-2.2-2.2v-20.8c0-1.2,1-2.2,2.2-2.2H639c1.2,0,2.2,1,2.2,2.2V868
				C641.2,869.2,640.2,870.2,639,870.2z M583.9,865.8h52.9v-16.4h-52.9V865.8z"/>
		</g>
		<g>
			<rect x="653.1" y="847.2" fill="#FFFFFF" width="128.7" height="20.8"/>
			<path d="M781.8,870.2H653.1c-1.2,0-2.2-1-2.2-2.2v-20.8c0-1.2,1-2.2,2.2-2.2h128.7c1.2,0,2.2,1,2.2,2.2V868
				C784,869.2,783,870.2,781.8,870.2z M655.3,865.8h124.3v-16.4H655.3V865.8z"/>
		</g>
		<g>
			<polygon fill="#FFFFFF" points="800.2,811.8 795.9,811.8 760.2,811.8 760.2,832.6 795.9,832.6 795.9,868 817.5,868 817.5,832.6 
				817.5,823.9 817.5,811.8 			"/>
			<path d="M817.5,870.2h-21.6c-1.2,0-2.2-1-2.2-2.2v-33.2h-33.5c-1.2,0-2.2-1-2.2-2.2v-20.8c0-1.2,1-2.2,2.2-2.2h57.3
				c1.2,0,2.2,1,2.2,2.2V868C819.7,869.2,818.7,870.2,817.5,870.2z M798.1,865.8h17.2V814h-52.9v16.4h33.5c1.2,0,2.2,1,2.2,2.2
				V865.8z"/>
		</g>
		<g>
			<rect x="831.6" y="847.2" fill="#FFFFFF" width="21.6" height="20.8"/>
			<path d="M853.2,870.2h-21.6c-1.2,0-2.2-1-2.2-2.2v-20.8c0-1.2,1-2.2,2.2-2.2h21.6c1.2,0,2.2,1,2.2,2.2V868
				C855.4,869.2,854.4,870.2,853.2,870.2z M833.8,865.8H851v-16.4h-17.2V865.8z"/>
		</g>
	</g>
	<g>
		<path d="M1217.8,288.2h-144.7c-1.2,0-2.2-1-2.2-2.2v-56.6c0-1.2,1-2.2,2.2-2.2h144.7c1.2,0,2.2,1,2.2,2.2V286
			C1219.9,287.2,1219,288.2,1217.8,288.2z M1075.3,283.8h140.3v-52.2h-140.3V283.8z"/>
	</g>
	<g>
		<path d="M1217.8,373.4h-144.7c-1.2,0-2.2-1-2.2-2.2v-56.6c0-1.2,1-2.2,2.2-2.2h144.7c1.2,0,2.2,1,2.2,2.2v56.6
			C1219.9,372.5,1219,373.4,1217.8,373.4z M1075.3,369.1h140.3v-52.2h-140.3V369.1z"/>
	</g>
	<g>
		<path d="M1217.8,458.7h-144.7c-1.2,0-2.2-1-2.2-2.2v-56.6c0-1.2,1-2.2,2.2-2.2h144.7c1.2,0,2.2,1,2.2,2.2v56.6
			C1219.9,457.7,1219,458.7,1217.8,458.7z M1075.3,454.3h140.3v-52.2h-140.3V454.3z"/>
	</g>
	<g>
		<path d="M458.5,575.2h-332c-1.2,0-2.2-1-2.2-2.2v-97.3c0-1.2,1-2.2,2.2-2.2h332c1.2,0,2.2,1,2.2,2.2V573
			C460.7,574.2,459.8,575.2,458.5,575.2z M128.7,570.8h327.6v-93H128.7V570.8z"/>
	</g>
	<g>
		<path d="M1048.1,288.2H903.4c-1.2,0-2.2-1-2.2-2.2v-56.6c0-1.2,1-2.2,2.2-2.2h144.7c1.2,0,2.2,1,2.2,2.2V286
			C1050.2,287.2,1049.3,288.2,1048.1,288.2z M905.6,283.8h140.3v-52.2H905.6V283.8z"/>
	</g>
	<g>
		<path d="M1148.2,231.6c-1.2,0-2.2-1-2.2-2.2v-64c0-1.2,1-2.2,2.2-2.2c1.2,0,2.2,1,2.2,2.2v64
			C1150.4,230.6,1149.4,231.6,1148.2,231.6z"/>
	</g>
	<g>
		<path d="M1001.2,231.6c-1.2,0-2.2-1-2.2-2.2v-64c0-1.2,1-2.2,2.2-2.2c1.2,0,2.2,1,2.2,2.2v64
			C1003.4,230.6,1002.4,231.6,1001.2,231.6z"/>
	</g>
	<g>
		<path d="M1274.1,345.2h-56.3c-1.2,0-2.2-1-2.2-2.2s1-2.2,2.2-2.2h54.1v-80.9h-54.1c-1.2,0-2.2-1-2.2-2.2c0-1.2,1-2.2,2.2-2.2h56.3
			c1.2,0,2.2,1,2.2,2.2V343C1276.3,344.2,1275.3,345.2,1274.1,345.2z"/>
	</g>
	<g>
		<path d="M1073.1,430.4h-71.9c-1.2,0-2.2-1-2.2-2.2V286c0-1.2,1-2.2,2.2-2.2c1.2,0,2.2,1,2.2,2.2v140h69.7c1.2,0,2.2,1,2.2,2.2
			S1074.3,430.4,1073.1,430.4z"/>
	</g>
	<g>
		<circle fill="#54CFFF" cx="246.7" cy="524.3" r="13.6"/>
		<path d="M246.7,540.1c-8.7,0-15.7-7.1-15.7-15.8s7.1-15.8,15.7-15.8s15.8,7.1,15.8,15.8S255.4,540.1,246.7,540.1z M246.7,512.9
			c-6.3,0-11.4,5.1-11.4,11.4s5.1,11.4,11.4,11.4c6.3,0,11.4-5.1,11.4-11.4S253,512.9,246.7,512.9z"/>
	</g>
	<g>
		<circle fill="#54CFFF" cx="291.2" cy="524.3" r="13.6"/>
		<path d="M291.2,540.1c-8.7,0-15.7-7.1-15.7-15.8s7.1-15.8,15.7-15.8c8.7,0,15.8,7.1,15.8,15.8S299.9,540.1,291.2,540.1z
			 M291.2,512.9c-6.3,0-11.4,5.1-11.4,11.4s5.1,11.4,11.4,11.4c6.3,0,11.4-5.1,11.4-11.4S297.5,512.9,291.2,512.9z"/>
	</g>
	<g>
		<path fill="#54CFFF" d="M349.3,524.3c0,7.5-6.1,13.6-13.6,13.6c-7.5,0-13.6-6.1-13.6-13.6s6.1-13.6,13.6-13.6
			C343.2,510.8,349.3,516.8,349.3,524.3z"/>
		<path d="M335.7,540.1c-8.7,0-15.7-7.1-15.7-15.8s7.1-15.8,15.7-15.8s15.8,7.1,15.8,15.8S344.4,540.1,335.7,540.1z M335.7,512.9
			c-6.3,0-11.4,5.1-11.4,11.4s5.1,11.4,11.4,11.4c6.3,0,11.4-5.1,11.4-11.4S342,512.9,335.7,512.9z"/>
	</g>
	<g>
		<path d="M990.1,561.7c-0.6,0-1.1-0.2-1.5-0.6l-31.2-31.2c-0.9-0.9-0.9-2.2,0-3.1l31.2-31.2c0.9-0.9,2.2-0.9,3.1,0s0.9,2.2,0,3.1
			L962,528.3l29.6,29.6c0.9,0.9,0.9,2.2,0,3.1C991.2,561.5,990.7,561.7,990.1,561.7z"/>
	</g>
	<g>
		<path d="M1256.4,561.7c-0.6,0-1.1-0.2-1.5-0.6c-0.9-0.9-0.9-2.2,0-3.1l29.6-29.6l-29.6-29.6c-0.9-0.9-0.9-2.2,0-3.1s2.2-0.9,3.1,0
			l31.2,31.2c0.9,0.9,0.9,2.2,0,3.1l-31.2,31.2C1257.5,561.5,1257,561.7,1256.4,561.7z"/>
	</g>
	<g>
		<path d="M1008.7,561.5c-0.3,0-0.6-0.1-0.9-0.2c-1.1-0.5-1.6-1.8-1.1-2.9l29-62.4c0.5-1.1,1.8-1.6,2.9-1.1c1.1,0.5,1.6,1.8,1.1,2.9
			l-29,62.4C1010.3,561,1009.5,561.5,1008.7,561.5z"/>
	</g>
	<g>
		<g>
			<path d="M1091.2,541.1c-0.8,3.2-2.3,5.8-4.7,7.9c-3,2.6-7.1,3.9-12,3.9c-6.1,0-10.6-2.4-13.7-7.5c-2.6-4.2-4-9.7-4-16.3
				c0-6.6,1.4-12.1,4.1-16.5c3.2-5.1,7.8-7.5,14-7.5c8.4,0,13.5,3.3,15.7,10l0.3,1l3.8-2l-0.3-0.7c-1.1-3-3-5.7-5.7-7.8
				c-3.7-2.9-8.2-4.4-13.5-4.4c-7.8,0-13.7,2.9-17.6,8.6c-3.4,5-5.1,11.5-5.1,19.3c0,7.9,1.7,14.3,5,19.1c3.9,5.6,9.7,8.5,17.4,8.5
				c5.9,0,10.8-1.6,14.5-4.9c2.7-2.4,4.6-5.5,5.6-9.2l0.2-0.7l-3.7-1.9L1091.2,541.1z"/>
		</g>
		<g>
			<path d="M1125.2,501.2c-7.8,0-13.9,2.8-18.1,8.4c-3.7,5-5.6,11.5-5.6,19.4c0,8.1,1.9,14.6,5.6,19.5c4.1,5.5,10.2,8.2,18.1,8.2
				c7.9,0,14-2.8,18.2-8.2c3.7-4.9,5.6-11.4,5.6-19.5c0-8-1.9-14.6-5.6-19.5C1139.2,504,1133.1,501.2,1125.2,501.2z M1125.2,552.9
				c-6.6,0-11.6-2.4-14.9-7.1c-3-4.2-4.5-9.9-4.5-16.8c0-6.9,1.5-12.5,4.5-16.8c3.4-4.8,8.3-7.2,14.9-7.2c6.6,0,11.5,2.3,14.9,7.2
				c3,4.2,4.6,9.9,4.6,16.8c0,6.9-1.5,12.6-4.5,16.8C1136.8,550.5,1131.8,552.9,1125.2,552.9z"/>
		</g>
		<g>
			<path d="M1186.4,504.9c-3.6-1.7-9.1-2.6-16.9-2.6h-12.7v53.3h12.7c7.5,0,13.2-0.9,16.9-2.6c7.9-3.7,11.9-11.8,11.9-24
				C1198.3,517,1194.3,508.9,1186.4,504.9z M1194,529c0,10.3-3,17.1-9.1,20.2c-3.2,1.6-8.2,2.5-14.9,2.5h-9.1v-45.4h9.1
				c2.1,0,3.9,0,5.5,0.1c1.5,0.1,2.8,0.2,3.9,0.4c3.4,0.6,6.1,1.9,8.1,3.7C1191.9,514.4,1194,520.7,1194,529z"/>
		</g>
		<g>
			<polygon points="1210.3,551.6 1210.3,529.9 1233.4,529.9 1233.4,525.9 1210.3,525.9 1210.3,506.4 1239.4,506.4 1239.4,502.3 
				1206.2,502.3 1206.2,555.6 1240.1,555.6 1240.1,551.6 			"/>
		</g>
	</g>
</g>
</svg>
